<svg width="231" height="40" fill="none" xmlns="http://www.w3.org/2000/svg"><g clip-path="url(#a)"><rect width="231" height="40" rx="6" fill="#fff"/><path d="M40.5 0v-.5H11.96c-2.8 0-4.94 0-6.61.22-1.69.23-2.96.7-3.95 1.68-.98 1-1.45 2.26-1.68 3.95C-.5 7.02-.5 9.17-.5 11.96v16.08c0 2.8 0 4.94.22 6.61.23 1.69.7 2.96 1.68 3.95 1 .98 2.26 1.45 3.95 1.68 1.67.22 3.82.22 6.61.22H40.5V0Z" fill="#fff"/><path d="M12.84 29.9V19.65l-3.14-2.9-2.82-1.62v12.96c0 1 .8 1.81 1.78 1.81h4.18Z" fill="#4285F4"/><path d="M27.16 29.9h4.18a1.8 1.8 0 0 0 1.79-1.8V15.12l-3.2 1.85-2.77 2.67V29.9Z" fill="#34A853"/><path d="m12.84 19.65-.43-4 .43-3.84L20 17.24l7.16-5.43.48 3.63-.48 4.21L20 25.08l-7.16-5.43Z" fill="#EA4335"/><path d="M27.16 11.81v7.84l5.96-4.52v-2.41a2.68 2.68 0 0 0-4.29-2.17l-1.67 1.26Z" fill="#FBBC04"/><path d="m6.88 15.13 2.74 2.08 3.22 2.44v-7.84l-1.67-1.26a2.68 2.68 0 0 0-4.3 2.17v2.41Z" fill="#C5221F"/><path d="M40.5 0v-.5H11.96c-2.8 0-4.94 0-6.61.22-1.69.23-2.96.7-3.95 1.68-.98 1-1.45 2.26-1.68 3.95C-.5 7.02-.5 9.17-.5 11.96v16.08c0 2.8 0 4.94.22 6.61.23 1.69.7 2.96 1.68 3.95 1 .98 2.26 1.45 3.95 1.68 1.67.22 3.82.22 6.61.22H40.5V0Z" stroke="#D0D7DE"/><path d="M55.04 25.34c.4 0 .75-.08 1.08-.24.33-.16.6-.37.8-.65.22-.28.34-.6.37-.96h1.54a2.9 2.9 0 0 1-.57 1.58 3.9 3.9 0 0 1-3.22 1.6c-.71 0-1.33-.12-1.87-.37-.52-.25-.96-.6-1.32-1.04-.34-.44-.6-.94-.78-1.51a6.38 6.38 0 0 1-.25-1.82v-.37c0-.64.08-1.24.25-1.81.18-.57.44-1.08.78-1.52.36-.44.8-.79 1.32-1.04a4.34 4.34 0 0 1 1.87-.38 4 4 0 0 1 1.96.46 3.56 3.56 0 0 1 1.84 2.99h-1.55c-.03-.4-.14-.75-.34-1.06a2.16 2.16 0 0 0-1.9-1.05c-.5 0-.92.1-1.26.3-.34.2-.6.46-.8.79-.2.33-.34.7-.42 1.1-.09.4-.13.8-.13 1.22v.37c0 .42.04.83.13 1.23.08.4.22.77.41 1.1.2.33.47.6.8.79.34.2.76.29 1.26.29Zm9.57 1.34c-.66 0-1.27-.12-1.8-.34a4.09 4.09 0 0 1-2.26-2.42c-.2-.56-.31-1.17-.31-1.84v-.37c0-.77.11-1.46.34-2.07.23-.6.54-1.12.93-1.54a3.99 3.99 0 0 1 4.64-.93c.5.23.91.56 1.23.98.31.42.55.9.7 1.48.15.56.23 1.17.23 1.84v.73h-7.1v-1.32h5.47v-.13a4.06 4.06 0 0 0-.26-1.23c-.15-.4-.38-.73-.7-.98a2.05 2.05 0 0 0-1.32-.39 2.21 2.21 0 0 0-1.82.92c-.23.3-.4.68-.52 1.12-.12.44-.19.95-.19 1.52v.37c0 .45.07.88.19 1.27.13.4.31.74.55 1.04.25.3.54.53.89.7.35.17.75.26 1.2.26.57 0 1.06-.12 1.45-.35.4-.24.75-.55 1.05-.94l.98.78c-.2.3-.46.6-.78.89-.31.28-.7.5-1.17.68-.45.18-1 .27-1.62.27Zm7.22-8.2v8.02h-1.62v-9.51h1.58l.04 1.5Zm2.97-1.54v1.5a4.11 4.11 0 0 0-.8-.07c-.37 0-.7.07-.99.18-.29.12-.53.29-.73.5-.2.2-.36.46-.47.75-.12.29-.19.6-.22.95l-.46.27c0-.58.05-1.12.17-1.62.11-.5.3-.95.53-1.34a2.57 2.57 0 0 1 2.97-1.13Zm7.5.05h1.47v9.3c0 .85-.17 1.56-.51 2.15-.34.6-.82 1.04-1.43 1.35a4.5 4.5 0 0 1-3.25.3c-.44-.1-.87-.27-1.3-.51a3.25 3.25 0 0 1-1.06-.98l.85-.97c.4.48.81.82 1.25 1 .44.2.87.29 1.3.29.51 0 .96-.1 1.34-.3.37-.19.66-.47.87-.85.2-.38.31-.84.31-1.4v-7.29L82.3 17Zm-6.56 4.86v-.18c0-.73.09-1.39.26-1.98.17-.6.42-1.11.75-1.54a3.36 3.36 0 0 1 2.75-1.34c.6 0 1.12.11 1.56.32a3 3 0 0 1 1.14.9c.32.4.57.87.75 1.43.18.56.3 1.19.38 1.89v.8c-.07.7-.2 1.33-.38 1.89a4.44 4.44 0 0 1-.75 1.42c-.3.4-.69.7-1.14.9a3.8 3.8 0 0 1-3.13-.04 3.52 3.52 0 0 1-1.18-1.02 4.79 4.79 0 0 1-.75-1.52 6.95 6.95 0 0 1-.26-1.93Zm1.63-.18v.18c0 .48.05.92.14 1.34.1.41.25.78.45 1.1.2.31.46.56.78.74.32.18.7.27 1.13.27.54 0 .99-.12 1.34-.35.35-.23.63-.53.83-.9.22-.38.38-.78.5-1.22V20.7a4.32 4.32 0 0 0-.3-.93c-.13-.3-.3-.58-.51-.81a2.2 2.2 0 0 0-.77-.57c-.3-.14-.66-.21-1.07-.21-.44 0-.83.09-1.15.28-.32.18-.58.43-.78.75-.2.32-.35.69-.45 1.11-.1.42-.14.86-.14 1.34Zm10.48-2.79v7.62h-1.63v-9.51h1.55l.08 1.89Zm-.33 2.5-.76-.02c.01-.65.1-1.25.26-1.8.16-.56.4-1.04.73-1.45.32-.41.72-.73 1.2-.95a3.85 3.85 0 0 1 1.67-.35c.45 0 .86.07 1.23.2a2.48 2.48 0 0 1 1.62 1.62c.15.43.23.94.23 1.53v6.34h-1.63v-6.26c0-.5-.08-.9-.25-1.2-.17-.3-.4-.5-.7-.64-.3-.14-.67-.21-1.08-.21-.48 0-.88.08-1.2.25-.32.17-.58.4-.77.7-.2.3-.34.65-.43 1.03-.08.38-.12.79-.12 1.21Zm6.16-.9-1.09.34c0-.52.1-1.02.26-1.5.17-.48.41-.9.73-1.28s.71-.67 1.18-.9c.47-.21 1-.33 1.61-.33.51 0 .96.07 1.35.2.4.14.74.35 1 .63.28.28.49.63.63 1.06.14.44.21.95.21 1.55v6.25h-1.63v-6.27c0-.53-.09-.94-.26-1.24-.16-.3-.4-.5-.7-.62a2.81 2.81 0 0 0-2.02 0c-.28.12-.51.3-.7.51-.18.21-.33.45-.43.73-.1.27-.14.57-.14.88Zm10.1-3.49v9.51h-1.63v-9.51h1.64Zm-1.75-2.52c0-.27.08-.49.24-.67.16-.18.4-.27.72-.27.31 0 .55.09.71.27.17.18.26.4.26.67 0 .25-.09.47-.26.65-.16.17-.4.26-.71.26-.32 0-.56-.09-.72-.26a.95.95 0 0 1-.24-.65Zm6 4.55v7.48h-1.63v-9.51h1.54l.09 2.03Zm-.4 2.36-.67-.02c0-.65.1-1.25.3-1.8.18-.56.44-1.04.78-1.45a3.52 3.52 0 0 1 2.79-1.3c.47 0 .89.07 1.27.2.37.12.69.32.95.6.27.27.48.63.62 1.07.14.43.2.96.2 1.59v6.23h-1.63v-6.25c0-.5-.07-.9-.22-1.2-.14-.3-.36-.52-.64-.65a2.3 2.3 0 0 0-1.03-.21 2.4 2.4 0 0 0-1.96.95 3.53 3.53 0 0 0-.75 2.24Zm22.74.7a7.8 7.8 0 0 1-.25 1.63 5.32 5.32 0 0 1-.63 1.48 3.07 3.07 0 0 1-2.72 1.5c-.4 0-.76-.08-1.06-.22-.3-.14-.55-.35-.74-.62-.19-.27-.32-.6-.4-.98-.06-.38-.08-.8-.03-1.27l.45-4.87h1.29l-.45 4.87c-.03.43-.02.78.03 1.05.06.27.14.47.26.62.12.14.25.24.4.29.15.05.3.08.44.08.35 0 .66-.1.94-.27.27-.2.5-.45.7-.77.19-.33.34-.7.44-1.13.1-.44.17-.9.2-1.4.03-.86 0-1.67-.13-2.4a6.62 6.62 0 0 0-.6-1.95 4.5 4.5 0 0 0-2.75-2.34 7.04 7.04 0 0 0-4.22.04c-.62.22-1.18.54-1.68.96-.49.43-.91.93-1.27 1.52-.35.6-.63 1.26-.84 2-.2.75-.31 1.54-.35 2.4-.04.88 0 1.69.14 2.42.14.74.36 1.39.65 1.96a4.95 4.95 0 0 0 2.76 2.39 6.87 6.87 0 0 0 3.6.13c.54-.12.99-.3 1.34-.5l.34 1c-.41.26-.92.46-1.54.59a8.37 8.37 0 0 1-4.17-.18 5.95 5.95 0 0 1-3.36-2.76 7.77 7.77 0 0 1-.83-2.27c-.17-.84-.24-1.77-.2-2.78.04-.96.18-1.87.43-2.72a9.3 9.3 0 0 1 1.03-2.3c.43-.7.95-1.3 1.55-1.8a6.65 6.65 0 0 1 4.49-1.56c.9 0 1.72.13 2.45.37a5.85 5.85 0 0 1 3.3 2.76c.37.67.63 1.43.8 2.27.16.84.23 1.76.19 2.76Zm-9.03.75a4.9 4.9 0 0 0 0 1.1c.04.32.12.59.24.81.11.22.27.4.45.51a1.33 1.33 0 0 0 1.22.05c.19-.1.37-.23.55-.4.18-.19.35-.43.51-.72.16-.3.3-.64.4-1.05l.58.63c-.14.48-.31.9-.53 1.26-.21.37-.45.67-.71.92-.27.24-.55.43-.85.56-.29.12-.59.18-.9.18-.42 0-.8-.09-1.12-.27a2.16 2.16 0 0 1-.78-.79c-.2-.34-.34-.74-.42-1.21a7.89 7.89 0 0 1 .9-4.68c.24-.42.52-.77.82-1.05.31-.29.64-.5.99-.65a3.3 3.3 0 0 1 2.56.05c.36.18.7.4 1.03.65l-.75.87c-.17-.16-.39-.32-.67-.46-.27-.14-.6-.2-.97-.2-.32 0-.62.07-.9.24-.29.16-.54.4-.77.74-.22.33-.41.73-.56 1.22a8 8 0 0 0-.32 1.69Zm17.34-5.84h1.48v9.3c0 .85-.17 1.56-.51 2.15-.34.6-.82 1.04-1.43 1.35a4.51 4.51 0 0 1-3.25.3c-.44-.1-.87-.27-1.3-.51a3.26 3.26 0 0 1-1.06-.98l.85-.97c.4.48.81.82 1.25 1 .44.2.87.29 1.3.29.52 0 .96-.1 1.34-.3.37-.19.66-.47.87-.85.2-.38.31-.84.31-1.4v-7.29l.15-2.09Zm-6.55 4.86v-.18c0-.73.09-1.39.26-1.98.17-.6.42-1.11.75-1.54a3.35 3.35 0 0 1 2.75-1.34c.6 0 1.12.11 1.56.32.45.2.83.5 1.14.9.32.4.57.87.75 1.43.18.56.3 1.19.38 1.89v.8c-.07.7-.2 1.33-.38 1.89a4.45 4.45 0 0 1-.75 1.42c-.3.4-.69.7-1.14.9a3.8 3.8 0 0 1-3.13-.04 3.52 3.52 0 0 1-1.17-1.02 4.75 4.75 0 0 1-.76-1.52 6.95 6.95 0 0 1-.26-1.93Zm1.63-.18v.18c0 .48.05.92.14 1.34.1.41.25.78.45 1.1.2.31.46.56.78.74.32.18.7.27 1.13.27.54 0 .99-.12 1.34-.35.35-.23.63-.53.84-.9.2-.38.37-.78.49-1.22V20.7a4.34 4.34 0 0 0-.3-.93c-.13-.3-.3-.58-.51-.81a2.2 2.2 0 0 0-.77-.57c-.3-.14-.66-.21-1.07-.21-.44 0-.83.09-1.15.28-.32.18-.58.43-.78.75-.2.32-.35.69-.45 1.11-.1.42-.14.86-.14 1.34Zm10.49-2.79v7.62h-1.64v-9.51h1.55l.09 1.89Zm-.34 2.5-.75-.02c0-.65.09-1.25.25-1.8.16-.56.4-1.04.73-1.45.32-.41.72-.73 1.2-.95a3.85 3.85 0 0 1 1.67-.35c.45 0 .86.07 1.23.2a2.49 2.49 0 0 1 1.62 1.62c.15.43.23.94.23 1.53v6.34h-1.63v-6.26c0-.5-.08-.9-.25-1.2-.17-.3-.4-.5-.7-.64-.3-.14-.67-.21-1.08-.21-.48 0-.88.08-1.2.25-.32.17-.58.4-.77.7-.2.3-.34.65-.43 1.03-.08.38-.12.79-.12 1.21Zm6.16-.9-1.09.34c0-.52.1-1.02.26-1.5.17-.48.41-.9.73-1.28s.72-.67 1.18-.9c.47-.21 1-.33 1.61-.33.51 0 .96.07 1.36.2a2.6 2.6 0 0 1 1.63 1.69c.13.44.2.95.2 1.55v6.25h-1.63v-6.27c0-.53-.09-.94-.26-1.24-.16-.3-.4-.5-.7-.62a2.8 2.8 0 0 0-2.02 0c-.28.12-.5.3-.7.51a2.2 2.2 0 0 0-.43.73c-.1.27-.14.57-.14.88Zm13.95 4.4v-4.9c0-.38-.08-.7-.23-.98a1.5 1.5 0 0 0-.67-.65c-.3-.15-.66-.23-1.1-.23-.41 0-.77.07-1.08.21-.3.15-.55.33-.72.56-.18.23-.26.47-.26.74h-1.63c0-.34.1-.68.27-1.01.17-.34.43-.64.75-.9.34-.28.74-.5 1.2-.66.47-.16.99-.25 1.56-.25.7 0 1.3.12 1.83.36.53.23.95.58 1.25 1.06.3.47.46 1.06.46 1.77v4.43c0 .31.02.65.08 1 .05.36.14.67.25.93v.14h-1.7a3.05 3.05 0 0 1-.19-.75 6 6 0 0 1-.07-.88Zm.28-4.15.02 1.15h-1.64c-.47 0-.88.04-1.24.11-.37.07-.67.18-.92.33a1.47 1.47 0 0 0-.75 1.32c0 .3.06.57.2.81.13.25.34.44.6.6.28.13.62.2 1.02.2a2.67 2.67 0 0 0 2.22-1.09c.23-.3.35-.6.37-.89l.7.79c-.05.24-.16.52-.34.81a3.93 3.93 0 0 1-1.8 1.54 3.5 3.5 0 0 1-1.4.27c-.64 0-1.2-.13-1.69-.38a2.68 2.68 0 0 1-1.52-2.44c0-.52.1-.96.3-1.35.2-.4.49-.72.86-.98.38-.26.83-.46 1.36-.6.52-.13 1.11-.2 1.76-.2h1.9Zm5.67-3.74v9.51h-1.63v-9.51h1.63Zm-1.76-2.52c0-.27.08-.49.24-.67.16-.18.4-.27.72-.27.31 0 .55.09.71.27.17.18.26.4.26.67 0 .25-.09.47-.26.65-.16.17-.4.26-.7.26-.33 0-.57-.09-.73-.26a.96.96 0 0 1-.24-.65Zm6.14-1.47v13.5h-1.64V13h1.64Zm2.63 12.64a1 1 0 0 1 .26-.7c.17-.19.43-.29.75-.29.33 0 .58.1.75.3.18.18.27.41.27.69 0 .27-.1.5-.27.68-.17.2-.42.29-.75.29-.32 0-.58-.1-.75-.29a.98.98 0 0 1-.26-.68Zm8.53-.3c.39 0 .74-.08 1.07-.24.33-.16.6-.37.81-.65.21-.28.33-.6.36-.96h1.55a2.9 2.9 0 0 1-.57 1.58 3.9 3.9 0 0 1-3.22 1.6c-.72 0-1.34-.12-1.87-.37s-.97-.6-1.32-1.04c-.35-.44-.6-.94-.78-1.51a6.38 6.38 0 0 1-.26-1.82v-.37c0-.64.09-1.24.26-1.81.17-.57.43-1.08.78-1.52.35-.44.79-.79 1.32-1.04a4.34 4.34 0 0 1 1.87-.38 4 4 0 0 1 1.95.46 3.56 3.56 0 0 1 1.84 2.99h-1.55c-.03-.4-.14-.75-.33-1.06a2.17 2.17 0 0 0-1.9-1.05c-.5 0-.93.1-1.27.3-.33.2-.6.46-.8.79-.19.33-.33.7-.42 1.1-.08.4-.12.8-.12 1.22v.37c0 .42.04.83.12 1.23.08.4.22.77.41 1.1.2.33.47.6.8.79.34.2.77.29 1.27.29Zm5.19-3.49v-.2c0-.69.1-1.32.3-1.9.2-.6.48-1.11.85-1.55.38-.44.84-.78 1.37-1.02a4.23 4.23 0 0 1 1.8-.37c.66 0 1.26.13 1.8.37.53.24.99.58 1.36 1.02.38.44.67.95.87 1.54.2.59.3 1.22.3 1.9v.21c0 .69-.1 1.32-.3 1.9a4.6 4.6 0 0 1-.87 1.55 4 4 0 0 1-3.15 1.38 4.07 4.07 0 0 1-4.03-2.92 5.9 5.9 0 0 1-.3-1.9Zm1.62-.2v.2c0 .48.06.92.17 1.35.11.41.28.78.5 1.1.23.32.51.58.85.77.34.18.74.27 1.19.27.44 0 .83-.1 1.17-.27.34-.19.62-.45.84-.77.22-.32.4-.69.5-1.1.12-.43.18-.87.18-1.35v-.2c0-.47-.06-.91-.18-1.33a3.4 3.4 0 0 0-.5-1.11 2.36 2.36 0 0 0-2.02-1.05c-.46-.01-.85.08-1.19.27-.33.19-.61.45-.84.78-.22.32-.39.69-.5 1.11-.11.42-.17.86-.17 1.33Zm10.69-2.77v7.62h-1.64v-9.51h1.55l.09 1.89Zm-.33 2.5-.76-.02c0-.65.09-1.25.25-1.8.17-.56.41-1.04.73-1.45.33-.41.73-.73 1.2-.95a3.85 3.85 0 0 1 1.68-.35c.44 0 .85.07 1.23.2a2.48 2.48 0 0 1 1.62 1.62c.15.43.22.94.22 1.53v6.34h-1.62v-6.26c0-.5-.09-.9-.26-1.2-.16-.3-.4-.5-.7-.64-.3-.14-.66-.21-1.07-.21-.48 0-.88.08-1.2.25-.33.17-.59.4-.78.7-.2.3-.33.65-.42 1.03-.08.38-.13.79-.13 1.21Zm6.16-.9-1.1.34c.01-.52.1-1.02.26-1.5.17-.48.41-.9.73-1.28s.72-.67 1.19-.9a4.17 4.17 0 0 1 2.96-.13c.4.14.73.35 1 .63.28.28.48.63.63 1.06.14.44.2.95.2 1.55v6.25h-1.63v-6.27c0-.53-.08-.94-.25-1.24-.17-.3-.4-.5-.7-.62a2.81 2.81 0 0 0-2.03 0c-.27.12-.5.3-.7.51-.18.21-.32.45-.42.73-.1.27-.14.57-.14.88Z" fill="#24292F"/></g><rect x=".5" y=".5" width="230" height="39" rx="5.5" stroke="#D0D7DE"/><defs><clipPath id="a"><rect width="231" height="40" rx="6" fill="#fff"/></clipPath></defs></svg>