<svg width="317" height="64" fill="none" xmlns="http://www.w3.org/2000/svg"><g clip-path="url(#a)"><rect width="317" height="64" rx="6" fill="#fff"/><path d="M64.5 0v-.5H11.96c-2.8 0-4.94 0-6.61.22-1.69.23-2.96.7-3.95 1.68-.98 1-1.45 2.26-1.68 3.95C-.5 7.02-.5 9.17-.5 11.96v40.08c0 2.8 0 4.94.22 6.61.23 1.69.7 2.96 1.68 3.95 1 .98 2.26 1.45 3.95 1.68 1.67.22 3.82.22 6.61.22H64.5V0Z" fill="#fff"/><path d="M20.55 47.84v-16.4L15.5 26.8 11 24.21v20.74c0 1.6 1.28 2.9 2.86 2.9h6.69Z" fill="#4285F4"/><path d="M43.45 47.84h6.69c1.58 0 2.86-1.3 2.86-2.9V24.22l-5.11 2.96-4.44 4.27v16.4Z" fill="#34A853"/><path d="m20.55 31.44-.69-6.4.69-6.14L32 27.58l11.45-8.68.77 5.8-.77 6.74L32 40.12l-11.45-8.68Z" fill="#EA4335"/><path d="M43.45 18.9v12.54L53 24.21v-3.86a4.3 4.3 0 0 0-6.87-3.47l-2.68 2.02Z" fill="#FBBC04"/><path d="m11 24.2 4.39 3.34 5.16 3.9V18.9l-2.68-2.02A4.3 4.3 0 0 0 11 20.35v3.86Z" fill="#C5221F"/><path d="M64.5 0v-.5H11.96c-2.8 0-4.94 0-6.61.22-1.69.23-2.96.7-3.95 1.68-.98 1-1.45 2.26-1.68 3.95C-.5 7.02-.5 9.17-.5 11.96v40.08c0 2.8 0 4.94.22 6.61.23 1.69.7 2.96 1.68 3.95 1 .98 2.26 1.45 3.95 1.68 1.67.22 3.82.22 6.61.22H64.5V0Z" stroke="#D0D7DE"/><path d="M85.63 37.98c.46 0 .88-.09 1.25-.27.37-.18.67-.44.9-.77.23-.33.36-.7.38-1.14h2.66a3.96 3.96 0 0 1-.72 2.24 5.04 5.04 0 0 1-1.87 1.6c-.77.4-1.62.6-2.56.6-.97 0-1.81-.17-2.53-.5a5 5 0 0 1-1.8-1.38 6.09 6.09 0 0 1-1.07-2.03 8.36 8.36 0 0 1-.36-2.46v-.4c0-.88.12-1.7.36-2.47.24-.77.6-1.45 1.07-2.04a4.9 4.9 0 0 1 1.8-1.37 5.9 5.9 0 0 1 2.52-.5c1.01 0 1.9.2 2.67.6a4.73 4.73 0 0 1 2.5 4.16h-2.67c-.02-.46-.14-.89-.35-1.26-.2-.38-.49-.69-.86-.91-.37-.23-.81-.34-1.33-.34-.57 0-1.04.11-1.42.35-.37.22-.66.54-.88.93-.2.4-.36.84-.45 1.33-.09.48-.13.99-.13 1.51v.41c0 .52.04 1.03.13 1.52.08.5.23.94.44 1.33.22.38.52.69.9.92.37.23.84.34 1.42.34Zm12.95 2.25c-.94 0-1.78-.15-2.54-.45a5.61 5.61 0 0 1-3.13-3.26 6.85 6.85 0 0 1-.42-2.43v-.47c0-.99.14-1.89.43-2.69.3-.8.7-1.5 1.2-2.06a5.19 5.19 0 0 1 1.84-1.33c.7-.3 1.46-.45 2.28-.45.9 0 1.7.15 2.38.45.68.3 1.24.74 1.69 1.3.45.54.79 1.2 1 1.95.23.76.35 1.6.35 2.5v1.21h-9.8v-2.02h7v-.23c0-.5-.11-.98-.3-1.43-.18-.44-.45-.8-.83-1.07a2.5 2.5 0 0 0-1.5-.41 2.48 2.48 0 0 0-2.16 1.16 4.5 4.5 0 0 0-.56 1.36 7.64 7.64 0 0 0-.19 1.77v.46c0 .56.08 1.07.23 1.55.15.47.38.88.68 1.23.3.35.65.63 1.07.83a3.9 3.9 0 0 0 4.64-1.28l1.5 1.45a5.33 5.33 0 0 1-2.67 2.03c-.63.22-1.36.33-2.19.33Zm10.11-10.5V40h-2.82V27.32h2.7l.13 2.41Zm3.88-2.5-.02 2.63a5.52 5.52 0 0 0-2.42.12 2.41 2.41 0 0 0-1.5 1.5 4.1 4.1 0 0 0-.23 1.2l-.64.05c0-.8.08-1.53.23-2.21.16-.68.4-1.28.7-1.8a3.2 3.2 0 0 1 3.42-1.6c.21.04.36.08.46.12Zm9.66.09h2.57v12.33c0 1.14-.24 2.1-.73 2.9-.48.8-1.16 1.4-2.03 1.82a6.8 6.8 0 0 1-4.63.42 6.63 6.63 0 0 1-1.7-.68c-.55-.3-1.01-.7-1.38-1.2l1.33-1.67a4.1 4.1 0 0 0 4.88 1.2c.45-.24.8-.58 1.06-1.05a3.5 3.5 0 0 0 .37-1.68v-9.52l.26-2.87Zm-8.61 6.48v-.25c0-.96.11-1.83.35-2.62a6.2 6.2 0 0 1 1-2.05c.44-.58.97-1.02 1.6-1.33a4.68 4.68 0 0 1 2.12-.46c.82 0 1.52.14 2.1.44.58.3 1.07.72 1.46 1.28.4.55.7 1.2.92 1.97.22.76.4 1.6.5 2.53v.78c-.1.91-.27 1.74-.51 2.49-.25.75-.57 1.4-.97 1.94a4.1 4.1 0 0 1-3.52 1.71 4.53 4.53 0 0 1-3.7-1.82 6.37 6.37 0 0 1-1-2.04 8.96 8.96 0 0 1-.35-2.57Zm2.82-.25v.25c0 .58.06 1.12.17 1.62.11.5.29.94.52 1.32.25.38.55.67.92.9.37.2.81.3 1.32.3.66 0 1.2-.13 1.63-.41.43-.28.76-.66.98-1.14.24-.48.4-1.02.5-1.62v-2.12a5.2 5.2 0 0 0-.3-1.29c-.14-.4-.33-.74-.57-1.04a2.4 2.4 0 0 0-.92-.7c-.36-.17-.8-.26-1.3-.26s-.95.1-1.32.33c-.38.22-.68.52-.92.9s-.42.83-.53 1.34c-.12.5-.18 1.05-.18 1.62Zm14.11-3.65V40h-2.82V27.32h2.66l.16 2.58Zm-.46 3.3-.96-.02c0-.88.11-1.68.33-2.43.22-.74.54-1.38.96-1.93.42-.55.95-.98 1.57-1.28a5 5 0 0 1 2.2-.45c.57 0 1.1.08 1.58.25.48.17.9.43 1.25.79.36.36.63.82.82 1.38.2.56.3 1.24.3 2.04V40h-2.83v-8.2c0-.62-.1-1.1-.28-1.46-.18-.35-.44-.6-.79-.75a2.84 2.84 0 0 0-1.2-.23c-.54 0-.99.1-1.36.3-.37.2-.67.48-.9.84-.24.35-.41.75-.52 1.21-.11.47-.17.96-.17 1.48Zm7.87-.76-1.33.3c0-.77.1-1.5.32-2.17.22-.7.53-1.3.95-1.8a4.46 4.46 0 0 1 3.68-1.68c.65 0 1.22.09 1.73.27.52.17.96.44 1.31.82.36.37.64.86.82 1.46.2.6.29 1.31.29 2.16V40h-2.84v-8.21c0-.65-.1-1.14-.28-1.5-.18-.34-.44-.59-.77-.72a3.12 3.12 0 0 0-1.21-.21c-.44 0-.82.08-1.16.25-.33.15-.6.37-.83.66-.23.28-.4.6-.52.98-.1.36-.16.76-.16 1.2Zm13.7-5.12V40h-2.84V27.32h2.84Zm-3.03-3.33c0-.43.14-.78.43-1.06.28-.3.68-.44 1.19-.44.5 0 .9.15 1.18.44.3.28.44.63.44 1.06 0 .42-.15.78-.44 1.06-.28.28-.68.42-1.18.42-.5 0-.9-.14-1.2-.42a1.43 1.43 0 0 1-.42-1.06Zm8.92 6.04V40h-2.82V27.32h2.66l.16 2.7Zm-.5 3.16-.92-.01c.01-.9.14-1.72.38-2.47.25-.75.6-1.4 1.03-1.94a4.55 4.55 0 0 1 3.66-1.68 5 5 0 0 1 1.65.25 3 3 0 0 1 1.28.81c.35.38.63.87.81 1.47.2.6.29 1.32.29 2.19V40h-2.84v-8.2c0-.61-.09-1.1-.27-1.44a1.5 1.5 0 0 0-.76-.77 2.85 2.85 0 0 0-1.23-.23 2.73 2.73 0 0 0-2.28 1.14c-.25.35-.45.75-.6 1.21-.13.47-.2.96-.2 1.48Zm30.03.72c-.03.75-.14 1.5-.34 2.26-.2.75-.49 1.43-.89 2.05-.39.62-.9 1.1-1.51 1.48a4.28 4.28 0 0 1-3.62.28c-.4-.2-.75-.46-1.02-.8a3.26 3.26 0 0 1-.57-1.24 5.1 5.1 0 0 1-.1-1.64l.6-6.65h2.05l-.59 6.65c-.04.47-.03.86.03 1.17.07.3.17.54.31.7.14.17.3.28.48.34s.36.1.54.1c.43 0 .8-.12 1.14-.36.34-.24.62-.57.85-1 .25-.42.44-.92.57-1.48a13.94 13.94 0 0 0 .1-4.85 8.46 8.46 0 0 0-.8-2.49 5.78 5.78 0 0 0-3.56-3 9.12 9.12 0 0 0-5.5.05c-.81.3-1.55.73-2.2 1.29a8.08 8.08 0 0 0-1.67 2c-.46.78-.82 1.65-1.1 2.62-.25.96-.4 1.99-.45 3.09-.05 1.16 0 2.21.18 3.16.18.96.47 1.8.87 2.54a6.24 6.24 0 0 0 3.6 3 9.59 9.59 0 0 0 6.55-.47l.45 1.56c-.55.35-1.23.6-2.05.78a11.34 11.34 0 0 1-5.65-.21 7.7 7.7 0 0 1-4.57-3.6 10.2 10.2 0 0 1-1.12-3.01 15.06 15.06 0 0 1-.28-3.75c.05-1.28.25-2.48.58-3.6.34-1.14.8-2.17 1.38-3.1.6-.91 1.3-1.7 2.11-2.37a9.07 9.07 0 0 1 2.77-1.55c1.02-.36 2.13-.54 3.34-.54 1.22 0 2.32.16 3.3.48a7.88 7.88 0 0 1 4.46 3.61c.49.87.85 1.85 1.07 2.95.23 1.08.32 2.27.26 3.55Zm-11.92 1.11c-.05.53-.06 1 0 1.42.05.41.15.76.28 1.04a1.5 1.5 0 0 0 1.4.87c.2 0 .4-.05.62-.14.23-.1.45-.26.67-.48.22-.22.43-.51.62-.87.2-.37.36-.82.5-1.36l.88 1.02c-.18.6-.4 1.15-.68 1.62-.27.46-.58.84-.92 1.16-.35.3-.72.54-1.12.7a3.37 3.37 0 0 1-2.76-.14c-.44-.25-.8-.6-1.08-1.06a4.8 4.8 0 0 1-.6-1.64 7.98 7.98 0 0 1-.07-2.14c.08-.8.23-1.55.45-2.24.22-.69.5-1.3.83-1.84.34-.54.72-1 1.14-1.37.42-.38.87-.67 1.36-.87a4.71 4.71 0 0 1 3.59.07c.5.25.96.55 1.41.88l-1.1 1.4a3.9 3.9 0 0 0-.9-.59 2.76 2.76 0 0 0-1.28-.28 2.47 2.47 0 0 0-2.17 1.23c-.27.4-.5.91-.7 1.51-.17.6-.3 1.3-.37 2.1Zm22.61-7.7h2.57v12.33c0 1.14-.25 2.1-.73 2.9-.49.8-1.16 1.4-2.03 1.82a6.8 6.8 0 0 1-4.63.42 6.63 6.63 0 0 1-1.7-.68c-.56-.3-1.01-.7-1.38-1.2l1.32-1.67a4.1 4.1 0 0 0 4.88 1.2c.46-.24.82-.58 1.07-1.05a3.5 3.5 0 0 0 .37-1.68v-9.52l.26-2.87Zm-8.61 6.48v-.25c0-.96.11-1.83.35-2.62a6.2 6.2 0 0 1 1-2.05c.44-.58.97-1.02 1.6-1.33a4.68 4.68 0 0 1 2.12-.46c.82 0 1.52.14 2.1.44.58.3 1.07.72 1.46 1.28.4.55.7 1.2.92 1.97.22.76.4 1.6.5 2.53v.78c-.1.91-.27 1.74-.52 2.49-.24.75-.56 1.4-.96 1.94a4.1 4.1 0 0 1-3.52 1.71 4.53 4.53 0 0 1-3.7-1.82 6.37 6.37 0 0 1-1-2.04 8.96 8.96 0 0 1-.35-2.57Zm2.82-.25v.25c0 .58.06 1.12.17 1.62.11.5.29.94.52 1.32.24.38.55.67.92.9.37.2.81.3 1.32.3.66 0 1.2-.13 1.63-.41.43-.28.76-.66.98-1.14.24-.48.4-1.02.5-1.62v-2.12a5.2 5.2 0 0 0-.3-1.29c-.14-.4-.33-.74-.57-1.04-.24-.3-.55-.54-.92-.7-.36-.17-.8-.26-1.3-.26s-.95.1-1.32.33c-.38.22-.68.52-.93.9-.23.38-.4.83-.52 1.34-.12.5-.18 1.05-.18 1.62Zm14.11-3.65V40h-2.82V27.32h2.66l.16 2.58Zm-.46 3.3-.96-.02c0-.88.11-1.68.33-2.43.22-.74.54-1.38.96-1.93.42-.55.95-.98 1.57-1.28a5 5 0 0 1 2.2-.45c.57 0 1.1.08 1.58.25.48.17.9.43 1.25.79.36.36.63.82.82 1.38.2.56.3 1.24.3 2.04V40h-2.83v-8.2c0-.62-.1-1.1-.28-1.46-.18-.35-.44-.6-.79-.75a2.84 2.84 0 0 0-1.2-.23c-.54 0-.99.1-1.37.3-.36.2-.66.48-.9.84-.23.35-.4.75-.51 1.21-.11.47-.17.96-.17 1.48Zm7.87-.76-1.33.3c0-.77.1-1.5.32-2.17.22-.7.53-1.3.95-1.8a4.45 4.45 0 0 1 3.68-1.68c.65 0 1.22.09 1.73.27.52.17.96.44 1.31.82.36.37.64.86.82 1.46.2.6.29 1.31.29 2.16V40h-2.84v-8.21c0-.65-.1-1.14-.28-1.5-.18-.34-.44-.59-.78-.72a3.12 3.12 0 0 0-1.2-.21c-.44 0-.83.08-1.16.25-.33.15-.6.37-.83.66-.23.28-.4.6-.52.98-.1.36-.16.76-.16 1.2Zm17.82 5.02V31.4c0-.45-.08-.84-.25-1.17a1.72 1.72 0 0 0-.75-.76 2.56 2.56 0 0 0-1.24-.27c-.46 0-.86.08-1.2.23-.33.16-.6.37-.78.63-.19.27-.28.57-.28.9h-2.81c0-.5.12-.98.36-1.45s.6-.88 1.06-1.25a5.27 5.27 0 0 1 1.65-.87 6.88 6.88 0 0 1 2.15-.31c.96 0 1.8.16 2.54.48.74.32 1.32.8 1.74 1.45.43.64.65 1.44.65 2.41v5.64c0 .58.03 1.1.11 1.56a5 5 0 0 0 .37 1.18V40h-2.9c-.13-.3-.24-.7-.31-1.16-.08-.48-.11-.94-.11-1.38Zm.41-5.17.02 1.75h-2.02c-.53 0-.99.05-1.39.15-.4.1-.73.23-1 .42a1.83 1.83 0 0 0-.79 1.58c0 .34.08.65.23.93.16.27.39.49.69.64a3.1 3.1 0 0 0 3.64-1c.25-.35.38-.68.4-.99l.91 1.25a4.98 4.98 0 0 1-1.37 2.09 4.43 4.43 0 0 1-3.03 1.12c-.83 0-1.57-.16-2.22-.49a3.94 3.94 0 0 1-1.52-1.35 4.03 4.03 0 0 1-.17-3.71c.25-.52.62-.96 1.12-1.31.5-.35 1.1-.62 1.83-.8a9.77 9.77 0 0 1 2.46-.28h2.21Zm8.4-4.97V40h-2.83V27.32h2.83Zm-3.02-3.33c0-.43.14-.78.42-1.06.29-.3.69-.44 1.2-.44.5 0 .9.15 1.18.44.29.28.43.63.43 1.06 0 .42-.14.78-.43 1.06s-.68.42-1.18.42c-.51 0-.91-.14-1.2-.42a1.43 1.43 0 0 1-.42-1.06Zm9.14-1.99v18h-2.84V22h2.84Zm3.21 16.6c0-.44.15-.81.45-1.1.3-.31.7-.46 1.2-.46.52 0 .92.15 1.21.45.3.3.45.67.45 1.1 0 .44-.15.8-.45 1.1-.29.3-.7.45-1.2.45-.52 0-.92-.15-1.21-.44a1.5 1.5 0 0 1-.45-1.1Zm11.74-.62c.46 0 .88-.09 1.25-.27.37-.18.67-.44.9-.77.23-.33.36-.7.38-1.14h2.66a3.96 3.96 0 0 1-.72 2.24 5.05 5.05 0 0 1-1.87 1.6c-.77.4-1.62.6-2.56.6-.97 0-1.81-.17-2.53-.5a5 5 0 0 1-1.8-1.38 6.1 6.1 0 0 1-1.07-2.03 8.38 8.38 0 0 1-.36-2.46v-.4c0-.88.12-1.7.36-2.47.24-.77.6-1.45 1.07-2.04a4.9 4.9 0 0 1 1.8-1.37 5.9 5.9 0 0 1 2.52-.5c1.01 0 1.9.2 2.67.6.76.4 1.37.96 1.8 1.68.45.71.68 1.54.7 2.49h-2.67c-.02-.47-.14-.9-.35-1.27-.2-.38-.49-.69-.86-.91-.37-.23-.81-.34-1.33-.34-.57 0-1.04.11-1.42.35-.37.22-.66.54-.88.93-.2.4-.36.84-.45 1.33-.09.48-.13.99-.13 1.51v.41c0 .52.04 1.03.13 1.52.08.5.23.94.44 1.33.22.38.52.69.9.92.37.23.85.34 1.42.34Zm6.82-4.18v-.27c0-.91.14-1.76.4-2.54.27-.8.65-1.47 1.15-2.05a5.18 5.18 0 0 1 1.85-1.36c.74-.33 1.56-.5 2.49-.5.93 0 1.75.17 2.48.5.74.32 1.36.77 1.86 1.36.51.58.9 1.26 1.16 2.05.27.78.4 1.63.4 2.54v.27c0 .91-.13 1.76-.4 2.54a6.09 6.09 0 0 1-1.16 2.05 5.37 5.37 0 0 1-1.85 1.36c-.72.32-1.55.48-2.47.48-.93 0-1.76-.16-2.5-.48a5.37 5.37 0 0 1-1.85-1.36c-.5-.58-.9-1.27-1.16-2.05a7.84 7.84 0 0 1-.4-2.54Zm2.83-.27v.27c0 .57.06 1.11.17 1.62.12.5.3.95.55 1.33.25.39.57.69.97.9.39.23.85.33 1.39.33a2.7 2.7 0 0 0 2.32-1.23c.25-.38.43-.82.55-1.33.13-.51.19-1.05.19-1.62v-.27c0-.56-.06-1.1-.19-1.6-.12-.5-.3-.95-.56-1.34a2.69 2.69 0 0 0-2.33-1.25c-.54 0-1 .1-1.39.34-.38.21-.7.52-.95.91s-.43.84-.55 1.35c-.11.5-.17 1.03-.17 1.6ZM285 29.9V40h-2.82V27.32h2.66l.16 2.58Zm-.45 3.3-.96-.02c0-.88.1-1.68.32-2.43.22-.74.54-1.38.96-1.93.43-.55.95-.98 1.57-1.28a5 5 0 0 1 2.2-.45c.57 0 1.1.08 1.58.25.48.17.9.43 1.25.79.36.36.63.82.82 1.38.2.56.3 1.24.3 2.04V40h-2.83v-8.2c0-.62-.1-1.1-.28-1.46-.18-.35-.44-.6-.79-.75a2.84 2.84 0 0 0-1.2-.23c-.53 0-.99.1-1.36.3-.37.2-.67.48-.9.84-.24.35-.41.75-.52 1.21-.1.47-.16.96-.16 1.48Zm7.86-.76-1.32.3c0-.77.1-1.5.31-2.17.22-.7.54-1.3.95-1.8a4.45 4.45 0 0 1 3.68-1.68c.65 0 1.23.09 1.74.27.51.17.95.44 1.3.82.37.37.64.86.83 1.46.19.6.28 1.31.28 2.16V40h-2.84v-8.21c0-.65-.09-1.14-.28-1.5-.18-.34-.44-.59-.77-.72a3.12 3.12 0 0 0-1.2-.21c-.44 0-.83.08-1.17.25-.33.15-.6.37-.83.66-.23.28-.4.6-.52.98-.1.36-.16.76-.16 1.2Z" fill="#24292F"/></g><rect x=".5" y=".5" width="316" height="63" rx="5.5" stroke="#D0D7DE"/><defs><clipPath id="a"><rect width="317" height="64" rx="6" fill="#fff"/></clipPath></defs></svg>