<svg width="213" height="40" fill="none" xmlns="http://www.w3.org/2000/svg"><g clip-path="url(#a)"><rect width="213" height="40" rx="6" fill="#fff"/><path d="M40.5 0v-.5H11.96c-2.8 0-4.94 0-6.61.22-1.69.23-2.96.7-3.95 1.68-.98 1-1.45 2.26-1.68 3.95C-.5 7.02-.5 9.17-.5 11.96v16.08c0 2.8 0 4.94.22 6.61.23 1.69.7 2.96 1.68 3.95 1 .98 2.26 1.45 3.95 1.68 1.67.22 3.82.22 6.61.22H40.5V0Z" fill="#fff"/><path d="M12.84 29.9V19.65l-3.14-2.9-2.82-1.62v12.96c0 1 .8 1.81 1.78 1.81h4.18Z" fill="#4285F4"/><path d="M27.16 29.9h4.18a1.8 1.8 0 0 0 1.79-1.8V15.12l-3.2 1.85-2.77 2.67V29.9Z" fill="#34A853"/><path d="m12.84 19.65-.43-4 .43-3.84L20 17.24l7.16-5.43.48 3.63-.48 4.21L20 25.08l-7.16-5.43Z" fill="#EA4335"/><path d="M27.16 11.81v7.84l5.96-4.52v-2.41a2.68 2.68 0 0 0-4.29-2.17l-1.67 1.26Z" fill="#FBBC04"/><path d="m6.88 15.13 2.74 2.08 3.22 2.44v-7.84l-1.67-1.26a2.68 2.68 0 0 0-4.3 2.17v2.41Z" fill="#C5221F"/><path d="M40.5 0v-.5H11.96c-2.8 0-4.94 0-6.61.22-1.69.23-2.96.7-3.95 1.68-.98 1-1.45 2.26-1.68 3.95C-.5 7.02-.5 9.17-.5 11.96v16.08c0 2.8 0 4.94.22 6.61.23 1.69.7 2.96 1.68 3.95 1 .98 2.26 1.45 3.95 1.68 1.67.22 3.82.22 6.61.22H40.5V0Z" stroke="#D0D7DE"/><path d="M54.48 24.47c.35 0 .67-.07.96-.21.29-.14.53-.34.72-.58.18-.25.3-.53.32-.85h1.37c-.02.5-.2.96-.5 1.4a3.47 3.47 0 0 1-2.87 1.43c-.63 0-1.19-.12-1.66-.34a3.3 3.3 0 0 1-1.17-.92c-.3-.4-.54-.84-.7-1.35a5.67 5.67 0 0 1-.22-1.61v-.33c0-.57.07-1.1.22-1.61.16-.51.4-.96.7-1.35.31-.4.7-.7 1.17-.92a3.86 3.86 0 0 1 1.66-.34c.67 0 1.24.14 1.74.4a3.16 3.16 0 0 1 1.63 2.66h-1.37a2.08 2.08 0 0 0-.3-.94 1.92 1.92 0 0 0-1.7-.93 1.96 1.96 0 0 0-1.83.97c-.17.29-.3.61-.37.97s-.1.72-.1 1.09v.33c0 .37.03.73.1 1.1.07.35.2.68.37.97.18.29.41.52.7.7.31.17.69.26 1.13.26Zm8.5 1.19a3.63 3.63 0 0 1-3.6-2.45 4.76 4.76 0 0 1-.28-1.64v-.33c0-.69.1-1.3.3-1.83.2-.55.49-1 .83-1.38a3.55 3.55 0 0 1 4.13-.83c.44.21.8.5 1.09.88.28.37.48.8.62 1.31.14.5.2 1.05.2 1.64v.65h-6.3V20.5h4.86v-.1a3.6 3.6 0 0 0-.24-1.1 1.97 1.97 0 0 0-.62-.88 1.83 1.83 0 0 0-1.17-.34 1.97 1.97 0 0 0-1.62.82c-.2.27-.35.6-.46 1-.11.38-.17.83-.17 1.34v.33c0 .4.06.78.17 1.13.11.35.28.66.5.93.21.26.47.47.78.62.31.15.67.23 1.06.23.51 0 .95-.1 1.3-.32.35-.2.66-.48.93-.83l.87.7c-.18.27-.41.53-.7.78-.27.25-.62.46-1.03.61-.4.16-.89.24-1.45.24Zm6.43-7.29v7.13h-1.45v-8.45h1.4l.05 1.32ZM72.05 17l-.01 1.34a3.66 3.66 0 0 0-.7-.06c-.34 0-.63.05-.89.16-.25.1-.47.25-.65.43a2.1 2.1 0 0 0-.42.68c-.1.25-.16.53-.2.84l-.4.23c0-.5.05-.98.15-1.43.1-.45.26-.85.48-1.19.21-.35.48-.62.8-.81a2.28 2.28 0 0 1 1.84-.19Zm6.65.05h1.32v8.27c0 .75-.16 1.38-.46 1.9-.3.53-.72.93-1.26 1.2a4 4 0 0 1-2.9.28c-.38-.1-.77-.25-1.15-.47-.38-.2-.69-.5-.95-.86l.76-.86c.36.42.73.72 1.11.89.4.17.78.25 1.16.25.46 0 .85-.09 1.19-.26.33-.17.59-.43.77-.77.19-.33.28-.74.28-1.23v-6.48l.13-1.86Zm-5.82 4.32v-.17c0-.64.08-1.23.23-1.75.16-.54.38-1 .66-1.37a2.98 2.98 0 0 1 2.45-1.19c.53 0 1 .1 1.39.28.4.18.74.45 1.02.8.28.36.5.78.66 1.27.16.5.27 1.06.33 1.68v.72a7.37 7.37 0 0 1-.33 1.67c-.16.5-.38.92-.67 1.27-.27.35-.61.62-1.01.8a3.37 3.37 0 0 1-2.78-.04c-.4-.22-.76-.52-1.05-.9-.29-.39-.51-.84-.67-1.36a6.18 6.18 0 0 1-.23-1.71Zm1.45-.17v.17c0 .42.04.81.12 1.18.1.37.22.7.4.98.18.28.42.5.7.67.28.15.61.23 1 .23.48 0 .88-.1 1.2-.3.3-.2.55-.48.73-.81.2-.33.34-.7.44-1.09v-1.88a3.84 3.84 0 0 0-.26-.83 2.55 2.55 0 0 0-.46-.72c-.18-.2-.4-.38-.68-.5a2.25 2.25 0 0 0-.95-.2 2 2 0 0 0-1.02.26 2 2 0 0 0-.7.67c-.18.28-.3.61-.4.99a5.4 5.4 0 0 0-.12 1.18Zm9.32-2.47v6.77H82.2v-8.45h1.37l.08 1.68Zm-.3 2.22-.67-.02c0-.58.08-1.11.23-1.6.14-.5.36-.93.64-1.3.3-.36.65-.64 1.08-.83.42-.2.92-.3 1.48-.3.4 0 .76.05 1.1.16a2.2 2.2 0 0 1 1.43 1.45c.14.37.2.83.2 1.36v5.63H87.4v-5.56c0-.45-.08-.8-.23-1.07a1.3 1.3 0 0 0-.62-.57 2.26 2.26 0 0 0-.96-.2c-.42 0-.78.08-1.07.24a1.8 1.8 0 0 0-.68.62c-.18.27-.3.57-.38.91-.07.34-.1.7-.1 1.08Zm5.48-.8-.97.3c0-.46.08-.9.23-1.33.15-.43.36-.81.64-1.14.3-.34.64-.6 1.06-.8.42-.19.9-.29 1.43-.29.45 0 .85.06 1.2.18.36.12.65.3.9.55.24.25.42.56.55.95.12.39.18.84.18 1.38v5.55H92.6v-5.57c0-.47-.07-.84-.22-1.1a1.18 1.18 0 0 0-.63-.56 2.5 2.5 0 0 0-1.8 0 1.98 1.98 0 0 0-1 1.1c-.08.25-.12.51-.12.79Zm8.98-3.1v8.45h-1.45v-8.45h1.45Zm-1.56-2.25c0-.23.07-.43.21-.59.15-.16.36-.24.64-.24s.49.08.63.24c.16.16.23.36.23.6 0 .22-.07.41-.23.57-.14.16-.35.24-.63.24s-.5-.08-.64-.24a.85.85 0 0 1-.21-.58Zm5.33 4.05v6.65h-1.45v-8.45h1.37l.08 1.8Zm-.35 2.1-.6-.02c0-.58.1-1.11.26-1.6.17-.5.4-.93.7-1.3a3.13 3.13 0 0 1 2.48-1.14c.42 0 .8.06 1.13.17.33.11.61.29.85.53.24.25.42.57.54.96.13.38.2.85.2 1.41v5.54h-1.46v-5.55c0-.45-.07-.8-.2-1.07a1.2 1.2 0 0 0-.57-.58 2.05 2.05 0 0 0-.92-.2 2.14 2.14 0 0 0-1.74.86 3.16 3.16 0 0 0-.67 2Zm20.2.62a7 7 0 0 1-.21 1.45c-.13.47-.31.91-.56 1.32a2.73 2.73 0 0 1-2.41 1.33c-.37 0-.68-.07-.95-.2a1.73 1.73 0 0 1-.66-.55 2.28 2.28 0 0 1-.35-.87 4.04 4.04 0 0 1-.03-1.13l.4-4.33h1.15l-.4 4.33c-.03.38-.03.7.02.93.05.24.13.43.23.56.1.12.23.2.36.25.13.05.26.07.39.07.3 0 .59-.08.83-.24.25-.16.45-.4.62-.68.17-.29.3-.63.4-1a10.07 10.07 0 0 0 .06-3.38 5.9 5.9 0 0 0-.54-1.73 4.01 4.01 0 0 0-2.44-2.08 6.26 6.26 0 0 0-3.75.03c-.55.2-1.05.48-1.49.86a5.5 5.5 0 0 0-1.13 1.35 7.2 7.2 0 0 0-.74 1.78 9.6 9.6 0 0 0-.32 2.13c-.03.78 0 1.5.13 2.15.12.65.31 1.23.58 1.74a4.4 4.4 0 0 0 2.45 2.12 6.1 6.1 0 0 0 3.2.12c.48-.11.87-.26 1.2-.45l.29.9c-.37.23-.82.4-1.37.52a7.45 7.45 0 0 1-3.71-.16 5.3 5.3 0 0 1-2.99-2.45 6.9 6.9 0 0 1-.73-2.02c-.15-.75-.21-1.58-.18-2.47.04-.86.16-1.66.38-2.42.23-.75.53-1.44.92-2.05.38-.62.84-1.15 1.37-1.59a5.92 5.92 0 0 1 4-1.39c.8 0 1.52.11 2.17.33a5.21 5.21 0 0 1 2.94 2.45c.33.6.56 1.27.7 2.02.16.75.21 1.56.18 2.45Zm-8.02.66c-.03.37-.03.7 0 .98.04.29.11.53.22.73.1.2.23.35.4.45a1.19 1.19 0 0 0 1.08.04c.17-.08.33-.2.5-.36.15-.16.3-.37.45-.63.13-.26.25-.58.35-.94l.51.56c-.12.43-.27.8-.47 1.13-.18.32-.4.6-.63.81-.23.22-.48.39-.75.5-.26.1-.53.16-.8.16a2 2 0 0 1-1-.24c-.28-.16-.52-.4-.7-.7-.17-.3-.3-.66-.37-1.08a7.04 7.04 0 0 1 .8-4.16c.22-.37.46-.68.73-.93.28-.26.57-.45.88-.58.3-.14.62-.2.95-.2.56 0 1 .08 1.32.25.33.16.63.35.93.57l-.67.78a2.46 2.46 0 0 0-.6-.4 1.88 1.88 0 0 0-.86-.2c-.29 0-.56.08-.8.22-.25.15-.48.37-.69.66-.2.29-.36.65-.5 1.08-.13.43-.22.93-.28 1.5Zm15.42-5.18h1.31v8.27c0 .75-.15 1.38-.45 1.9-.3.53-.73.93-1.27 1.2a4.01 4.01 0 0 1-2.89.28 4.16 4.16 0 0 1-1.16-.47c-.37-.2-.69-.5-.94-.86l.76-.86c.35.42.72.72 1.1.89.4.17.78.25 1.16.25.46 0 .86-.09 1.2-.26.32-.17.58-.43.76-.77.2-.33.28-.74.28-1.23v-6.48l.14-1.86ZM123 21.37v-.17c0-.64.07-1.23.22-1.75.16-.54.38-1 .67-1.37a2.99 2.99 0 0 1 2.44-1.19c.53 0 1 .1 1.4.28.4.18.73.45 1.01.8.28.36.5.78.66 1.27.17.5.28 1.06.34 1.68v.72a7.33 7.33 0 0 1-.34 1.67c-.16.5-.38.92-.66 1.27s-.62.62-1.02.8a3.37 3.37 0 0 1-2.78-.04c-.4-.22-.75-.52-1.04-.9-.3-.39-.52-.84-.68-1.36a6.18 6.18 0 0 1-.22-1.71Zm1.44-.17v.17c0 .42.05.81.13 1.18.09.37.22.7.4.98.18.28.41.5.7.67.27.15.6.23 1 .23.48 0 .88-.1 1.19-.3.31-.2.56-.48.74-.81.19-.33.33-.7.44-1.09v-1.88a3.81 3.81 0 0 0-.27-.83 2.53 2.53 0 0 0-.45-.72c-.18-.2-.41-.38-.68-.5a2.25 2.25 0 0 0-.96-.2 2 2 0 0 0-1.02.26 2 2 0 0 0-.7.67c-.17.28-.3.61-.4.99-.07.37-.12.76-.12 1.18Zm9.32-2.47v6.77h-1.45v-8.45h1.38l.07 1.68Zm-.3 2.22-.66-.02c0-.58.07-1.11.22-1.6.15-.5.36-.93.65-1.3.29-.36.64-.64 1.07-.83.43-.2.92-.3 1.48-.3.4 0 .77.05 1.1.16a2.2 2.2 0 0 1 1.44 1.45c.13.37.2.83.2 1.36v5.63h-1.45v-5.56c0-.45-.07-.8-.22-1.07a1.3 1.3 0 0 0-.63-.57 2.26 2.26 0 0 0-.95-.2c-.43 0-.78.08-1.07.24-.29.15-.52.36-.69.62-.17.27-.3.57-.37.91-.08.34-.11.7-.11 1.08Zm5.48-.8-.97.3c.01-.46.09-.9.23-1.33.15-.43.37-.81.65-1.14.29-.34.64-.6 1.05-.8.42-.19.9-.29 1.43-.29.46 0 .86.06 1.2.18.36.12.66.3.9.55.24.25.43.56.55.95.13.39.19.84.19 1.38v5.55h-1.45v-5.57c0-.47-.08-.84-.23-1.1a1.18 1.18 0 0 0-.63-.56 2.5 2.5 0 0 0-1.8 0 1.98 1.98 0 0 0-1 1.1c-.07.25-.12.51-.12.79Zm12.4 3.9V19.7c0-.33-.07-.62-.2-.86a1.33 1.33 0 0 0-.6-.58c-.26-.14-.59-.2-.98-.2-.36 0-.69.06-.96.18-.27.13-.49.3-.64.5-.15.2-.23.42-.23.65h-1.44c0-.3.07-.6.23-.9.16-.3.38-.56.67-.8.3-.25.65-.44 1.07-.58.41-.15.88-.22 1.39-.22.61 0 1.15.1 1.62.31.47.21.84.53 1.11.95.27.42.4.94.4 1.57v3.94c0 .28.03.58.08.9.05.31.13.59.22.82v.12h-1.5a5.3 5.3 0 0 1-.23-1.45Zm.25-3.68.02 1.02h-1.46c-.41 0-.78.03-1.1.1-.33.06-.6.16-.82.3-.22.12-.38.29-.5.48a1.49 1.49 0 0 0 0 1.4c.13.23.3.4.55.53a2.38 2.38 0 0 0 2.88-.78c.2-.27.3-.53.32-.79l.62.7c-.04.22-.14.46-.3.72a3.46 3.46 0 0 1-1.6 1.37 3.1 3.1 0 0 1-1.23.24c-.58 0-1.08-.12-1.51-.34a2.37 2.37 0 0 1-1.35-2.17c0-.45.09-.85.26-1.2.18-.35.44-.63.77-.86.33-.24.73-.42 1.2-.54.47-.12 1-.18 1.57-.18h1.68Zm5.04-3.32v8.45h-1.45v-8.45h1.45Zm-1.56-2.25c0-.23.07-.43.2-.59.16-.16.37-.24.65-.24s.49.08.63.24c.15.16.23.36.23.6 0 .22-.08.41-.23.57-.14.16-.35.24-.63.24s-.5-.08-.64-.24a.85.85 0 0 1-.21-.58Zm5.45-1.3v12h-1.45v-12h1.45Zm2.34 11.23c0-.24.08-.45.23-.61.16-.17.38-.26.67-.26.3 0 .52.09.67.26.15.16.23.37.23.61s-.08.45-.23.61c-.15.17-.38.25-.67.25-.29 0-.51-.08-.67-.25a.88.88 0 0 1-.22-.6Zm7.58-.26c.35 0 .67-.07.96-.21.29-.14.53-.34.72-.58.18-.25.29-.53.31-.85h1.38c-.03.5-.2.96-.5 1.4a3.46 3.46 0 0 1-2.87 1.43c-.63 0-1.19-.12-1.66-.34a3.3 3.3 0 0 1-1.17-.92c-.31-.4-.54-.84-.7-1.35a5.67 5.67 0 0 1-.22-1.61v-.33c0-.57.07-1.1.22-1.61.16-.51.39-.96.7-1.35.31-.4.7-.7 1.17-.92a3.86 3.86 0 0 1 1.66-.34c.67 0 1.24.14 1.74.4a3.16 3.16 0 0 1 1.63 2.66h-1.38a2.08 2.08 0 0 0-.3-.94 1.92 1.92 0 0 0-1.7-.93 1.96 1.96 0 0 0-1.83.97c-.16.29-.28.61-.36.97-.07.36-.1.72-.1 1.09v.33c0 .37.03.73.1 1.1.07.35.2.68.37.97.17.29.41.52.7.7.31.17.69.26 1.13.26Zm4.61-3.1v-.18c0-.61.1-1.18.27-1.7s.43-.98.76-1.36c.34-.4.74-.7 1.22-.91.47-.22 1-.33 1.59-.33.6 0 1.13.11 1.6.33.48.21.88.51 1.22.9.34.39.6.85.77 1.37.18.52.27 1.09.27 1.7v.18c0 .6-.1 1.17-.27 1.7-.18.51-.43.97-.77 1.36a3.55 3.55 0 0 1-2.8 1.23 3.62 3.62 0 0 1-3.59-2.6 5.24 5.24 0 0 1-.27-1.7Zm1.45-.18v.18c0 .42.05.82.15 1.2.1.36.24.69.44.98.2.28.46.51.76.68.3.16.65.24 1.05.24s.75-.08 1.04-.24c.3-.17.56-.4.75-.68.2-.29.35-.62.45-.99.1-.37.16-.77.16-1.2v-.17c0-.42-.06-.81-.16-1.18-.1-.38-.25-.7-.46-1a2.1 2.1 0 0 0-1.8-.94c-.39 0-.74.1-1.04.26-.3.16-.54.4-.75.69-.2.28-.34.61-.44.99-.1.37-.15.76-.15 1.18Zm9.5-2.46v6.77h-1.45v-8.45h1.37l.08 1.68Zm-.3 2.22-.67-.02c0-.58.08-1.11.23-1.6.14-.5.36-.93.64-1.3.3-.36.65-.64 1.07-.83.43-.2.93-.3 1.49-.3.4 0 .76.05 1.1.16a2.2 2.2 0 0 1 1.43 1.45c.13.37.2.83.2 1.36v5.63h-1.44v-5.56c0-.45-.08-.8-.23-1.07a1.3 1.3 0 0 0-.62-.57 2.25 2.25 0 0 0-.96-.2c-.42 0-.78.08-1.07.24a1.8 1.8 0 0 0-.69.62c-.17.27-.3.57-.37.91-.07.34-.1.7-.1 1.08Zm5.48-.8-.97.3c0-.46.08-.9.22-1.33.16-.43.37-.81.65-1.14.29-.34.64-.6 1.06-.8.41-.19.9-.29 1.43-.29.45 0 .85.06 1.2.18s.65.3.9.55c.24.25.42.56.55.95.12.39.18.84.18 1.38v5.55h-1.45v-5.57c0-.47-.08-.84-.23-1.1a1.18 1.18 0 0 0-.62-.56 2.5 2.5 0 0 0-1.8 0c-.24.11-.45.26-.62.46a2 2 0 0 0-.5 1.43Z" fill="#24292F"/></g><rect x=".5" y=".5" width="212" height="39" rx="5.5" stroke="#D0D7DE"/><defs><clipPath id="a"><rect width="213" height="40" rx="6" fill="#fff"/></clipPath></defs></svg>