<svg width="232" height="40" fill="none" xmlns="http://www.w3.org/2000/svg"><g clip-path="url(#a)"><rect width="232" height="40" rx="6" fill="#fff"/><path d="M40.5 0v-.5H11.96c-2.794 0-4.943 0-6.61.224-1.69.227-2.96.693-3.946 1.68C.417 2.39-.05 3.66-.276 5.35-.5 7.017-.5 9.166-.5 11.96v16.08c0 2.794 0 4.943.224 6.61.227 1.69.693 2.96 1.68 3.946.987.987 2.256 1.453 3.946 1.68 1.667.224 3.816.224 6.61.224H40.5V0Z" fill="#40B3E0"/><path d="m29.732 11.505-3.572 18.01s-.5 1.25-1.874.65l-8.243-6.32-2.998-1.449L8 20.697s-.774-.274-.85-.874c-.074-.6.875-.924.875-.924l20.059-7.869s1.649-.724 1.649.475Z" fill="#fff"/><path d="M15.409 29.313s-.24-.022-.54-.972c-.3-.949-1.824-5.945-1.824-5.945l12.115-7.694s.7-.424.675 0c0 0 .125.075-.25.425s-9.517 8.568-9.517 8.568" fill="#D2E5F1"/><path d="m19.203 26.268-3.26 2.973s-.255.193-.534.072l.624-5.522" fill="#B5CFE4"/><path d="M40.5 0v-.5H11.96c-2.794 0-4.943 0-6.61.224-1.69.227-2.96.693-3.946 1.68C.417 2.39-.05 3.66-.276 5.35-.5 7.017-.5 9.166-.5 11.96v16.08c0 2.794 0 4.943.224 6.61.227 1.69.693 2.96 1.68 3.946.987.987 2.256 1.453 3.946 1.68 1.667.224 3.816.224 6.61.224H40.5V0Z" stroke="#D0D7DE"/><path d="M65.258 22.08a7.859 7.859 0 0 1-.246 1.625 5.331 5.331 0 0 1-.633 1.485 3.311 3.311 0 0 1-1.099 1.09c-.445.27-.984.405-1.617.405-.404 0-.759-.07-1.063-.211a1.953 1.953 0 0 1-.739-.624 2.57 2.57 0 0 1-.395-.976 4.542 4.542 0 0 1-.035-1.274l.448-4.87h1.292l-.448 4.87c-.035.427-.027.776.026 1.045.059.27.146.478.264.625.117.14.249.237.395.29.152.052.299.079.44.079.351 0 .665-.091.94-.273.276-.187.507-.442.694-.764.194-.329.343-.707.449-1.134a7.35 7.35 0 0 0 .193-1.389c.041-.873 0-1.676-.123-2.408a6.628 6.628 0 0 0-.607-1.951 4.514 4.514 0 0 0-1.107-1.442 4.698 4.698 0 0 0-1.635-.896c-.633-.205-1.356-.308-2.17-.308-.739 0-1.422.114-2.048.343a5.386 5.386 0 0 0-1.68.967 6.214 6.214 0 0 0-1.273 1.52 8.135 8.135 0 0 0-.836 2.004 10.88 10.88 0 0 0-.351 2.39c-.041.88.006 1.688.14 2.427.135.732.352 1.385.651 1.96.305.58.688 1.069 1.151 1.467.463.405 1 .71 1.609.914.61.211 1.289.317 2.039.317.515 0 1.037-.062 1.564-.185.533-.123.979-.29 1.336-.5l.334 1.001c-.41.264-.923.46-1.538.59a8.378 8.378 0 0 1-1.731.192c-.891 0-1.705-.123-2.444-.369a5.947 5.947 0 0 1-1.95-1.063 5.93 5.93 0 0 1-1.407-1.697 7.762 7.762 0 0 1-.826-2.267c-.176-.85-.244-1.778-.203-2.786.041-.961.185-1.866.431-2.716.252-.85.595-1.62 1.028-2.311a7.463 7.463 0 0 1 1.547-1.785 6.653 6.653 0 0 1 2.03-1.16 7.277 7.277 0 0 1 2.462-.404c.902 0 1.72.123 2.452.369s1.374.6 1.925 1.063a5.755 5.755 0 0 1 1.38 1.697c.363.668.626 1.424.79 2.267.17.844.235 1.764.194 2.76Zm-9.027.746c-.04.41-.04.776 0 1.099.041.322.12.595.238.817.117.223.27.393.457.51.193.111.419.167.676.167.17 0 .35-.041.537-.123a1.99 1.99 0 0 0 .553-.404 3.05 3.05 0 0 0 .51-.712c.158-.293.29-.645.396-1.055l.58.633c-.135.48-.31.902-.528 1.265-.21.364-.448.668-.712.915a2.949 2.949 0 0 1-.843.562 2.296 2.296 0 0 1-.897.185c-.428 0-.803-.091-1.125-.273a2.156 2.156 0 0 1-.782-.79c-.2-.34-.34-.745-.422-1.214a6.371 6.371 0 0 1-.035-1.582 7.925 7.925 0 0 1 .325-1.705c.164-.521.366-.987.607-1.397.246-.41.521-.76.826-1.046.31-.287.639-.504.984-.65.346-.153.7-.23 1.064-.23.633 0 1.13.095 1.494.282a6.39 6.39 0 0 1 1.037.65l-.747.87a2.769 2.769 0 0 0-.668-.456c-.276-.141-.6-.211-.976-.211-.322 0-.624.082-.905.246-.281.164-.536.41-.765.738-.222.328-.41.735-.562 1.222a8.015 8.015 0 0 0-.317 1.687Zm14.986 2.514c.386 0 .744-.08 1.072-.238a2.21 2.21 0 0 0 .809-.65c.21-.281.33-.6.36-.958h1.547a2.9 2.9 0 0 1-.571 1.573 3.9 3.9 0 0 1-1.363 1.17c-.562.292-1.18.439-1.854.439-.715 0-1.34-.126-1.872-.378a3.71 3.71 0 0 1-1.319-1.037 4.633 4.633 0 0 1-.782-1.512 6.38 6.38 0 0 1-.255-1.82v-.368c0-.64.085-1.243.255-1.811a4.62 4.62 0 0 1 .782-1.52 3.71 3.71 0 0 1 1.319-1.038c.533-.252 1.157-.378 1.872-.378.744 0 1.394.153 1.951.457.557.3.993.71 1.31 1.231.322.516.498 1.102.527 1.758h-1.547a2.342 2.342 0 0 0-.334-1.064 2.082 2.082 0 0 0-.773-.756c-.323-.193-.7-.29-1.134-.29-.498 0-.917.1-1.257.3-.334.193-.6.456-.8.79a3.693 3.693 0 0 0-.422 1.099 6.037 6.037 0 0 0-.123 1.222v.369c0 .416.041.826.123 1.23.082.404.22.77.413 1.099.2.328.466.592.8.79.34.194.762.29 1.266.29Zm9.562 1.336a4.677 4.677 0 0 1-1.801-.334 4.085 4.085 0 0 1-1.38-.958 4.26 4.26 0 0 1-.88-1.46 5.35 5.35 0 0 1-.307-1.845v-.369c0-.774.114-1.462.343-2.066.228-.609.539-1.124.931-1.546a3.99 3.99 0 0 1 1.337-.958 3.839 3.839 0 0 1 1.546-.326c.68 0 1.266.118 1.758.352.498.234.905.563 1.222.984.316.416.55.909.703 1.477.152.563.228 1.178.228 1.846v.73h-7.101v-1.328h5.475v-.123a4.052 4.052 0 0 0-.263-1.23 2.21 2.21 0 0 0-.703-.985c-.323-.258-.762-.387-1.319-.387a2.214 2.214 0 0 0-1.819.923 3.452 3.452 0 0 0-.518 1.116c-.124.44-.185.947-.185 1.521v.37c0 .45.061.875.184 1.274.13.392.314.738.554 1.037.246.299.542.533.888.703.351.17.75.255 1.195.255.574 0 1.06-.118 1.46-.352a3.614 3.614 0 0 0 1.045-.94l.984.782a4.55 4.55 0 0 1-.782.888c-.316.28-.706.51-1.169.685-.457.176-.999.264-1.626.264Zm7.225-8.192V26.5h-1.626v-9.51h1.582l.044 1.494Zm2.97-1.547-.008 1.512a2.341 2.341 0 0 0-.387-.053 4.116 4.116 0 0 0-.404-.017c-.375 0-.706.058-.993.176-.288.117-.53.28-.73.492-.2.21-.357.463-.474.756a3.635 3.635 0 0 0-.22.949l-.457.264c0-.575.055-1.114.167-1.618.117-.503.296-.949.536-1.335.24-.393.545-.698.914-.915.375-.222.82-.334 1.336-.334.117 0 .252.015.404.044a1.2 1.2 0 0 1 .317.08Zm7.489.053h1.477v9.308c0 .838-.17 1.553-.51 2.144a3.321 3.321 0 0 1-1.424 1.345c-.604.31-1.3.466-2.092.466-.328 0-.715-.053-1.16-.158a4.68 4.68 0 0 1-1.3-.519 3.252 3.252 0 0 1-1.064-.975l.852-.967c.399.48.815.814 1.248 1.002.44.187.873.281 1.301.281.516 0 .961-.097 1.336-.29.375-.193.665-.48.87-.861.211-.375.317-.838.317-1.389v-7.295l.149-2.092Zm-6.548 4.86v-.184c0-.727.085-1.386.255-1.977.176-.598.425-1.11.747-1.539a3.354 3.354 0 0 1 1.186-.984 3.414 3.414 0 0 1 1.565-.352c.598 0 1.12.106 1.564.317.452.205.832.507 1.143.905.316.393.565.867.747 1.424.182.557.308 1.186.378 1.89v.808a8.285 8.285 0 0 1-.378 1.881 4.439 4.439 0 0 1-.747 1.424c-.31.392-.691.694-1.143.905-.45.205-.978.308-1.582.308-.568 0-1.084-.12-1.547-.36a3.522 3.522 0 0 1-1.177-1.011 4.789 4.789 0 0 1-.756-1.53 6.951 6.951 0 0 1-.255-1.924Zm1.626-.184v.185c0 .474.047.92.14 1.335.1.416.25.783.449 1.1.205.316.466.565.782.746.316.176.694.264 1.134.264.539 0 .984-.114 1.336-.343.351-.228.63-.53.835-.905a5.23 5.23 0 0 0 .492-1.222v-2.118a4.324 4.324 0 0 0-.299-.932 2.87 2.87 0 0 0-.51-.808c-.205-.24-.46-.43-.764-.572a2.537 2.537 0 0 0-1.072-.21c-.446 0-.83.093-1.152.28a2.242 2.242 0 0 0-.782.757c-.2.316-.349.685-.448 1.107a6.07 6.07 0 0 0-.141 1.336Zm10.485-2.786v7.62h-1.634v-9.51h1.546l.088 1.89Zm-.334 2.505-.755-.027c.005-.65.09-1.25.254-1.801.164-.557.408-1.04.73-1.45.322-.41.724-.727 1.204-.95.48-.228 1.037-.343 1.67-.343.445 0 .855.065 1.23.194.375.123.701.32.976.589.275.27.489.615.642 1.037.152.422.228.931.228 1.53V26.5h-1.626v-6.258c0-.498-.085-.896-.255-1.195a1.454 1.454 0 0 0-.703-.65 2.538 2.538 0 0 0-1.072-.211c-.481 0-.882.084-1.204.254-.323.17-.58.405-.774.704a3.178 3.178 0 0 0-.422 1.028c-.082.38-.123.785-.123 1.213Zm6.162-.897-1.09.334c.006-.521.09-1.022.255-1.503a4.07 4.07 0 0 1 .729-1.283 3.45 3.45 0 0 1 1.187-.888c.468-.222 1.004-.334 1.608-.334.51 0 .961.068 1.353.203.399.134.733.342 1.002.624a2.6 2.6 0 0 1 .624 1.063c.141.434.211.95.211 1.547V26.5h-1.634v-6.267c0-.533-.085-.946-.255-1.239a1.33 1.33 0 0 0-.703-.624c-.299-.123-.657-.184-1.073-.184-.357 0-.673.061-.949.184a1.96 1.96 0 0 0-.694.51c-.188.21-.331.454-.431.73-.094.275-.14.568-.14.878Zm10.107-3.498v9.51h-1.635v-9.51h1.635Zm-1.758-2.522c0-.264.079-.487.237-.668.164-.182.405-.273.721-.273.311 0 .548.091.712.273.17.181.255.404.255.668a.92.92 0 0 1-.255.65c-.164.176-.401.264-.712.264-.316 0-.557-.088-.721-.264a.958.958 0 0 1-.237-.65Zm5.994 4.552v7.48h-1.626v-9.51h1.538l.088 2.03Zm-.386 2.365-.677-.027a5.71 5.71 0 0 1 .29-1.801c.187-.557.451-1.04.791-1.45a3.525 3.525 0 0 1 2.786-1.293c.469 0 .891.065 1.266.194.375.123.694.322.958.598.269.275.474.632.615 1.072.14.433.211.964.211 1.59V26.5h-1.635v-6.249c0-.498-.073-.896-.22-1.195a1.349 1.349 0 0 0-.641-.66c-.282-.14-.627-.21-1.037-.21-.405 0-.774.084-1.108.254-.328.17-.612.405-.852.704a3.529 3.529 0 0 0-.554 1.028c-.129.38-.193.785-.193 1.213Z" fill="#24292F"/></g><rect x=".5" y=".5" width="231" height="39" rx="5.5" stroke="#D0D7DE"/><defs><clipPath id="a"><rect width="232" height="40" rx="6" fill="#fff"/></clipPath></defs></svg>