<svg width="317" height="64" fill="none" xmlns="http://www.w3.org/2000/svg"><g clip-path="url(#a)"><rect width="317" height="64" rx="6" fill="#fff"/><path d="M64.5 0v-.5H11.96c-2.8 0-4.94 0-6.61.22-1.69.23-2.96.7-3.95 1.68-.98 1-1.45 2.26-1.68 3.95C-.5 7.02-.5 9.17-.5 11.96v40.08c0 2.8 0 4.94.22 6.61.23 1.69.7 2.96 1.68 3.95 1 .98 2.26 1.45 3.95 1.68 1.67.22 3.82.22 6.61.22H64.5V0Z" fill="#40B3E0"/><path d="m47.57 18.4-5.71 28.82s-.8 2-3 1.04l-13.2-10.1-4.79-2.33-8.07-2.71s-1.24-.44-1.36-1.4c-.12-.96 1.4-1.48 1.4-1.48l32.1-12.6s2.63-1.15 2.63.77Z" fill="#fff"/><path d="M24.65 46.9s-.38-.04-.86-1.55c-.48-1.52-2.92-9.52-2.92-9.52l19.39-12.3s1.12-.69 1.08 0c0 0 .2.11-.4.67-.6.56-15.23 13.71-15.23 13.71" fill="#D2E5F1"/><path d="m30.73 42.03-5.22 4.76s-.4.3-.86.11l1-8.83" fill="#B5CFE4"/><path d="M64.5 0v-.5H11.96c-2.8 0-4.94 0-6.61.22-1.69.23-2.96.7-3.95 1.68-.98 1-1.45 2.26-1.68 3.95C-.5 7.02-.5 9.17-.5 11.96v40.08c0 2.8 0 4.94.22 6.61.23 1.69.7 2.96 1.68 3.95 1 .98 2.26 1.45 3.95 1.68 1.67.22 3.82.22 6.61.22H64.5V0Z" stroke="#D0D7DE"/><path d="M99.43 33.9a10.7 10.7 0 0 1-.34 2.27 7 7 0 0 1-.9 2.05c-.39.62-.89 1.1-1.5 1.48a4.28 4.28 0 0 1-3.63.28c-.4-.2-.74-.46-1.02-.8a3.25 3.25 0 0 1-.57-1.24 5.08 5.08 0 0 1-.1-1.64l.6-6.65h2.05l-.58 6.65c-.05.47-.04.86.02 1.17.07.3.18.54.32.7.14.17.3.28.48.34s.36.1.54.1c.42 0 .8-.12 1.13-.36a3 3 0 0 0 .86-1c.24-.42.43-.92.56-1.48a13.95 13.95 0 0 0 .1-4.85 8.43 8.43 0 0 0-.8-2.49 5.78 5.78 0 0 0-3.55-3 9.12 9.12 0 0 0-5.5.05c-.82.3-1.55.73-2.2 1.29a8.08 8.08 0 0 0-1.68 2 10.5 10.5 0 0 0-1.09 2.62c-.25.96-.4 1.99-.45 3.09-.06 1.16 0 2.21.17 3.16.18.96.47 1.8.87 2.54a6.25 6.25 0 0 0 3.6 3 9.59 9.59 0 0 0 6.55-.47l.45 1.56c-.54.35-1.23.6-2.05.78a11.33 11.33 0 0 1-5.64-.21 7.7 7.7 0 0 1-4.57-3.6c-.51-.87-.89-1.88-1.13-3.01a15.07 15.07 0 0 1-.28-3.75c.05-1.28.25-2.48.58-3.6.34-1.14.8-2.17 1.39-3.1.6-.91 1.3-1.7 2.1-2.37A9.07 9.07 0 0 1 87 23.86c1.03-.36 2.14-.54 3.34-.54 1.22 0 2.32.16 3.3.48a7.87 7.87 0 0 1 4.46 3.61c.5.87.85 1.85 1.08 2.95.22 1.08.31 2.27.26 3.55ZM87.5 35.03c-.06.53-.06 1-.01 1.42.05.41.15.76.29 1.04.15.28.34.5.57.65a1.58 1.58 0 0 0 1.44.08c.23-.1.45-.26.67-.48.22-.22.43-.51.62-.87.2-.37.36-.82.5-1.36l.89 1.02a7.3 7.3 0 0 1-.68 1.62 5 5 0 0 1-.93 1.16 3.37 3.37 0 0 1-3.88.56c-.44-.25-.8-.6-1.08-1.06a4.8 4.8 0 0 1-.6-1.64 8 8 0 0 1-.06-2.14c.07-.8.22-1.55.44-2.24.23-.69.5-1.3.83-1.84.34-.54.72-1 1.14-1.37.42-.38.88-.67 1.36-.87.5-.2 1-.3 1.51-.3.88 0 1.58.12 2.08.37s.97.55 1.41.88l-1.1 1.4a3.92 3.92 0 0 0-.89-.59 2.75 2.75 0 0 0-1.29-.28 2.47 2.47 0 0 0-2.17 1.23c-.27.4-.5.91-.69 1.51-.18.6-.3 1.3-.37 2.1Zm19.66 2.96c.46 0 .88-.09 1.24-.27.38-.18.68-.44.9-.77.24-.33.37-.7.4-1.14h2.65a3.96 3.96 0 0 1-.72 2.24 5.04 5.04 0 0 1-1.87 1.6 5.6 5.6 0 0 1-2.56.6c-.97 0-1.81-.17-2.53-.5a5 5 0 0 1-1.8-1.38 6.07 6.07 0 0 1-1.07-2.03 8.34 8.34 0 0 1-.36-2.46v-.4c0-.88.12-1.7.36-2.47.24-.77.6-1.45 1.07-2.04a4.89 4.89 0 0 1 1.8-1.37 5.9 5.9 0 0 1 2.51-.5c1.02 0 1.91.2 2.68.6a4.73 4.73 0 0 1 2.5 4.16h-2.67c-.02-.46-.14-.89-.35-1.26-.2-.38-.5-.69-.87-.91-.36-.23-.8-.34-1.32-.34-.57 0-1.04.11-1.42.35-.37.22-.67.54-.88.93-.2.4-.36.84-.45 1.33-.09.48-.13.99-.13 1.51v.41c0 .52.04 1.03.13 1.52.08.5.23.94.44 1.33.22.38.52.69.9.92.37.23.84.34 1.42.34Zm12.95 2.25c-.94 0-1.78-.15-2.54-.45a5.62 5.62 0 0 1-3.13-3.26 6.86 6.86 0 0 1-.42-2.43v-.47c0-.99.14-1.89.43-2.69s.7-1.5 1.2-2.06a5.2 5.2 0 0 1 1.84-1.33c.7-.3 1.46-.45 2.28-.45.9 0 1.7.15 2.38.45.68.3 1.24.74 1.69 1.3.45.54.79 1.2 1 1.95.23.76.34 1.6.34 2.5v1.21h-9.8v-2.02h7.02v-.23c-.02-.5-.12-.98-.3-1.43-.19-.44-.47-.8-.84-1.07a2.5 2.5 0 0 0-1.5-.41 2.48 2.48 0 0 0-2.16 1.16c-.24.37-.43.82-.56 1.36a7.64 7.64 0 0 0-.19 1.77v.46c0 .56.08 1.07.23 1.55.15.47.38.88.68 1.23.3.35.65.63 1.07.83a3.92 3.92 0 0 0 4.64-1.28l1.5 1.45a5.33 5.33 0 0 1-2.67 2.03c-.63.22-1.36.33-2.19.33Zm10.11-10.5V40h-2.82V27.32h2.7l.12 2.41Zm3.88-2.5-.02 2.63a5.52 5.52 0 0 0-2.43.12 2.41 2.41 0 0 0-1.48 1.5 4.1 4.1 0 0 0-.24 1.2l-.64.05c0-.8.07-1.53.23-2.21.16-.68.4-1.28.7-1.8a3.2 3.2 0 0 1 3.42-1.6c.2.04.36.08.46.12Zm9.66.09h2.57v12.33c0 1.14-.25 2.1-.73 2.9-.49.8-1.16 1.4-2.03 1.82a6.8 6.8 0 0 1-4.63.42 6.63 6.63 0 0 1-1.7-.68c-.56-.3-1.01-.7-1.38-1.2l1.32-1.67a4.1 4.1 0 0 0 4.88 1.2c.46-.24.82-.58 1.07-1.05a3.5 3.5 0 0 0 .37-1.68v-9.52l.26-2.87Zm-8.61 6.48v-.25c0-.96.11-1.83.35-2.62a6.2 6.2 0 0 1 1-2.05c.44-.58.97-1.02 1.6-1.33a4.68 4.68 0 0 1 2.12-.46c.82 0 1.52.14 2.1.44.58.3 1.07.72 1.46 1.28.4.55.7 1.2.92 1.97.22.76.4 1.6.5 2.53v.78c-.1.91-.27 1.74-.52 2.49-.24.75-.56 1.4-.96 1.94a4.1 4.1 0 0 1-3.52 1.71 4.53 4.53 0 0 1-3.7-1.82 6.37 6.37 0 0 1-1-2.04 8.96 8.96 0 0 1-.35-2.57Zm2.82-.25v.25c0 .58.06 1.12.17 1.62.11.5.29.94.52 1.32.24.38.55.67.92.9.37.2.81.3 1.32.3.66 0 1.2-.13 1.63-.41.43-.28.76-.66.98-1.14.24-.48.4-1.02.5-1.62v-2.12a5.2 5.2 0 0 0-.3-1.29c-.14-.4-.33-.74-.57-1.04-.24-.3-.55-.54-.92-.7-.36-.17-.8-.26-1.3-.26s-.95.1-1.32.33c-.38.22-.68.52-.93.9-.23.38-.4.83-.52 1.34-.12.5-.18 1.05-.18 1.62Zm14.11-3.65V40h-2.82V27.32h2.66l.16 2.58Zm-.46 3.3-.96-.02c0-.88.11-1.68.33-2.43.22-.74.54-1.38.96-1.93.42-.55.95-.98 1.57-1.28a5 5 0 0 1 2.2-.45c.57 0 1.1.08 1.58.25.48.17.9.43 1.25.79.36.36.63.82.82 1.38.2.56.3 1.24.3 2.04V40h-2.83v-8.2c0-.62-.1-1.1-.28-1.46-.18-.35-.44-.6-.79-.75a2.84 2.84 0 0 0-1.2-.23c-.54 0-.99.1-1.37.3-.36.2-.66.48-.9.84-.23.35-.4.75-.51 1.21-.11.47-.17.96-.17 1.48Zm7.87-.76-1.33.3c0-.77.1-1.5.32-2.17.22-.7.53-1.3.95-1.8a4.45 4.45 0 0 1 3.68-1.68c.65 0 1.22.09 1.73.27.52.17.96.44 1.31.82.36.37.64.86.82 1.46.2.6.29 1.31.29 2.16V40h-2.84v-8.21c0-.65-.1-1.14-.28-1.5-.18-.34-.44-.59-.78-.72a3.12 3.12 0 0 0-1.2-.21c-.44 0-.83.08-1.16.25-.33.15-.6.37-.83.66-.23.28-.4.6-.52.98-.1.36-.16.76-.16 1.2Zm13.7-5.12V40h-2.84V27.32h2.83Zm-3.03-3.33c0-.43.14-.78.42-1.06.3-.3.7-.44 1.2-.44s.9.15 1.18.44c.3.28.44.63.44 1.06 0 .42-.15.78-.44 1.06-.29.28-.68.42-1.18.42-.5 0-.9-.14-1.2-.42a1.43 1.43 0 0 1-.42-1.06Zm8.92 6.04V40h-2.82V27.32h2.66l.16 2.7Zm-.5 3.16-.92-.01c.01-.9.14-1.72.38-2.47.25-.75.6-1.4 1.03-1.94a4.55 4.55 0 0 1 3.65-1.68c.61 0 1.17.08 1.66.25a3 3 0 0 1 1.27.81c.36.38.64.87.82 1.47.2.6.29 1.32.29 2.19V40h-2.84v-8.2c0-.61-.09-1.1-.27-1.44a1.5 1.5 0 0 0-.76-.77 2.85 2.85 0 0 0-1.23-.23 2.73 2.73 0 0 0-2.27 1.14c-.26.35-.46.75-.6 1.21-.14.47-.21.96-.21 1.48Z" fill="#24292F"/></g><rect x=".5" y=".5" width="316" height="63" rx="5.5" stroke="#D0D7DE"/><defs><clipPath id="a"><rect width="317" height="64" rx="6" fill="#fff"/></clipPath></defs></svg>