<svg width="213" height="40" fill="none" xmlns="http://www.w3.org/2000/svg"><g clip-path="url(#a)"><rect width="213" height="40" rx="6" fill="#fff"/><path d="M40.5 0v-.5H11.96c-2.8 0-4.94 0-6.61.22-1.69.23-2.96.7-3.95 1.68-.98 1-1.45 2.26-1.68 3.95C-.5 7.02-.5 9.17-.5 11.96v16.08c0 2.8 0 4.94.22 6.61.23 1.69.7 2.96 1.68 3.95 1 .98 2.26 1.45 3.95 1.68 1.67.22 3.82.22 6.61.22H40.5V0Z" fill="#40B3E0"/><path d="m29.73 11.5-3.57 18.02s-.5 1.24-1.87.64l-8.25-6.32-3-1.44L8 20.7s-.78-.28-.85-.88c-.08-.6.87-.92.87-.92l20.06-7.87s1.65-.72 1.65.47Z" fill="#fff"/><path d="M15.4 29.31s-.23-.02-.53-.97l-1.82-5.94 12.11-7.7s.7-.42.67 0c0 0 .13.08-.25.43-.37.35-9.51 8.56-9.51 8.56" fill="#D2E5F1"/><path d="m19.2 26.27-3.26 2.97s-.25.2-.53.07l.62-5.52" fill="#B5CFE4"/><path d="M40.5 0v-.5H11.96c-2.8 0-4.94 0-6.61.22-1.69.23-2.96.7-3.95 1.68-.98 1-1.45 2.26-1.68 3.95C-.5 7.02-.5 9.17-.5 11.96v16.08c0 2.8 0 4.94.22 6.61.23 1.69.7 2.96 1.68 3.95 1 .98 2.26 1.45 3.95 1.68 1.67.22 3.82.22 6.61.22H40.5V0Z" stroke="#D0D7DE"/><path d="M63.56 21.57c-.02.48-.1.96-.22 1.45-.12.47-.3.91-.56 1.32a2.73 2.73 0 0 1-2.41 1.33c-.36 0-.68-.07-.95-.2a1.74 1.74 0 0 1-.65-.55 2.29 2.29 0 0 1-.36-.87 4.04 4.04 0 0 1-.03-1.13l.4-4.33h1.15l-.4 4.33c-.03.38-.02.7.02.93.06.24.13.43.24.56.1.12.22.2.35.25.14.05.27.07.4.07.3 0 .58-.08.83-.24.24-.16.45-.4.61-.68.18-.29.3-.63.4-1a10.09 10.09 0 0 0 .06-3.38 5.89 5.89 0 0 0-.53-1.73 4.01 4.01 0 0 0-2.44-2.08 6.26 6.26 0 0 0-3.75.03 4.8 4.8 0 0 0-1.5.86c-.43.37-.8.82-1.13 1.35a7.23 7.23 0 0 0-.74 1.78 9.66 9.66 0 0 0-.31 2.13c-.04.78 0 1.5.12 2.15.12.65.32 1.23.58 1.74a4.4 4.4 0 0 0 2.46 2.12 6.1 6.1 0 0 0 3.2.12c.47-.11.87-.26 1.19-.45l.3.9c-.37.23-.83.4-1.37.52a7.45 7.45 0 0 1-3.72-.16 5.28 5.28 0 0 1-2.98-2.45 6.9 6.9 0 0 1-.73-2.02c-.16-.75-.22-1.58-.18-2.47.03-.86.16-1.66.38-2.42.22-.75.53-1.44.91-2.05.39-.62.85-1.15 1.38-1.59a5.91 5.91 0 0 1 3.99-1.39c.8 0 1.53.11 2.18.33a5.2 5.2 0 0 1 2.94 2.45c.32.6.55 1.27.7 2.02.15.75.2 1.56.17 2.45Zm-8.02.66c-.04.37-.04.7 0 .98.04.29.1.53.21.73.1.2.24.35.4.45a1.18 1.18 0 0 0 1.08.04c.17-.08.34-.2.5-.36.16-.16.3-.37.45-.63.14-.26.26-.58.35-.94l.52.56c-.12.43-.28.8-.47 1.13-.19.32-.4.6-.63.81-.24.22-.49.39-.75.5-.27.1-.53.16-.8.16a2 2 0 0 1-1-.24c-.29-.16-.52-.4-.7-.7-.17-.3-.3-.66-.37-1.08a7.05 7.05 0 0 1 .8-4.16c.21-.37.46-.68.73-.93.28-.26.57-.45.87-.58a2.93 2.93 0 0 1 2.27.05c.33.16.64.35.93.57l-.66.78a2.46 2.46 0 0 0-.6-.4 1.88 1.88 0 0 0-.87-.2c-.28 0-.55.08-.8.22-.25.15-.48.37-.68.66-.2.29-.36.65-.5 1.08-.14.43-.23.93-.28 1.5Zm13.32 2.24c.34 0 .66-.07.95-.21.3-.14.53-.34.72-.58.19-.25.3-.53.32-.85h1.38c-.03.5-.2.96-.51 1.4a3.47 3.47 0 0 1-2.86 1.43c-.64 0-1.2-.12-1.66-.34a3.3 3.3 0 0 1-1.18-.92c-.3-.4-.54-.84-.7-1.35a5.67 5.67 0 0 1-.22-1.61v-.33c0-.57.08-1.1.23-1.61.15-.51.39-.96.7-1.35.3-.4.7-.7 1.17-.92a3.86 3.86 0 0 1 1.66-.34c.66 0 1.24.14 1.73.4a3.16 3.16 0 0 1 1.63 2.66h-1.37a2.08 2.08 0 0 0-.3-.94 1.92 1.92 0 0 0-1.7-.93 1.96 1.96 0 0 0-1.83.97c-.16.29-.29.61-.36.97-.08.36-.11.72-.11 1.09v.33c0 .37.03.73.1 1.1.08.35.2.68.37.97.18.29.42.52.71.7.3.17.68.26 1.13.26Zm8.5 1.19a3.63 3.63 0 0 1-3.6-2.45 4.76 4.76 0 0 1-.28-1.64v-.33c0-.69.1-1.3.3-1.83.2-.55.48-1 .83-1.38a3.55 3.55 0 0 1 4.12-.83c.45.21.8.5 1.09.88.28.37.49.8.63 1.31.13.5.2 1.05.2 1.64v.65h-6.31V20.5h4.86v-.1a3.6 3.6 0 0 0-.23-1.1 1.97 1.97 0 0 0-.63-.88 1.83 1.83 0 0 0-1.17-.34 1.97 1.97 0 0 0-1.62.82c-.2.27-.35.6-.46 1-.1.38-.16.83-.16 1.34v.33c0 .4.05.78.16 1.13.12.35.28.66.5.93.21.26.48.47.78.62.32.15.67.23 1.07.23.5 0 .94-.1 1.3-.32.35-.2.66-.48.92-.83l.88.7c-.18.27-.42.53-.7.78-.28.25-.62.46-1.04.61-.4.16-.88.24-1.44.24Zm6.42-7.29v7.13h-1.44v-8.45h1.4l.04 1.32ZM86.42 17v1.34a3.66 3.66 0 0 0-.7-.06c-.34 0-.64.05-.9.16-.25.1-.46.25-.64.43a2.1 2.1 0 0 0-.42.68c-.1.25-.17.53-.2.84l-.4.23c0-.5.05-.98.14-1.43.1-.45.27-.85.48-1.19.21-.35.49-.62.81-.81a2.28 2.28 0 0 1 1.83-.19Zm6.66.05h1.31v8.27c0 .75-.15 1.38-.45 1.9-.3.53-.73.93-1.27 1.2a4 4 0 0 1-2.89.28c-.39-.1-.77-.25-1.16-.47-.37-.2-.69-.5-.94-.86l.76-.86c.35.42.72.72 1.1.89.4.17.78.25 1.16.25.46 0 .86-.09 1.2-.26.32-.17.58-.43.76-.77.2-.33.29-.74.29-1.23v-6.48l.13-1.86Zm-5.82 4.32v-.17c0-.64.07-1.23.22-1.75.16-.54.38-1 .67-1.37a2.98 2.98 0 0 1 2.44-1.19c.53 0 1 .1 1.4.28.4.18.73.45 1.01.8.28.36.5.78.66 1.27.17.5.28 1.06.34 1.68v.72a7.37 7.37 0 0 1-.34 1.67c-.16.5-.38.92-.66 1.27s-.61.62-1.02.8a3.37 3.37 0 0 1-2.78-.04c-.4-.22-.75-.52-1.04-.9-.3-.39-.52-.84-.68-1.36a6.18 6.18 0 0 1-.22-1.71Zm1.44-.17v.17c0 .42.04.81.13 1.18.09.37.22.7.4.98.18.28.41.5.7.67.27.15.6.23 1 .23.48 0 .87-.1 1.19-.3.31-.2.56-.48.74-.81.19-.33.33-.7.44-1.09v-1.88a3.84 3.84 0 0 0-.27-.83 2.55 2.55 0 0 0-.45-.72c-.18-.2-.41-.38-.68-.5a2.25 2.25 0 0 0-.95-.2 2 2 0 0 0-1.03.26 2 2 0 0 0-.7.67c-.17.28-.3.61-.4.99a5.4 5.4 0 0 0-.12 1.18Zm9.32-2.47v6.77h-1.45v-8.45h1.38l.07 1.68Zm-.3 2.22-.67-.02c.01-.58.09-1.11.23-1.6.15-.5.36-.93.65-1.3.29-.36.64-.64 1.07-.83.43-.2.92-.3 1.48-.3.4 0 .77.05 1.1.16a2.2 2.2 0 0 1 1.44 1.45c.13.37.2.83.2 1.36v5.63h-1.45v-5.56c0-.45-.07-.8-.22-1.07a1.3 1.3 0 0 0-.63-.57 2.26 2.26 0 0 0-.95-.2c-.43 0-.79.08-1.07.24a1.8 1.8 0 0 0-.69.62c-.17.27-.3.57-.37.91-.08.34-.11.7-.11 1.08Zm5.48-.8-.97.3c.01-.46.08-.9.23-1.33.15-.43.37-.81.65-1.14.29-.34.64-.6 1.05-.8.42-.19.9-.29 1.43-.29.46 0 .86.06 1.2.18.36.12.66.3.9.55.24.25.43.56.55.95.13.39.19.84.19 1.38v5.55h-1.45v-5.57c0-.47-.08-.84-.23-1.1a1.18 1.18 0 0 0-.63-.56 2.5 2.5 0 0 0-1.8 0 1.98 1.98 0 0 0-1 1.1c-.07.25-.12.51-.12.79Zm8.99-3.1v8.45h-1.46v-8.45h1.46Zm-1.56-2.25c0-.23.06-.43.2-.59.15-.16.36-.24.65-.24.27 0 .48.08.63.24.15.16.23.36.23.6 0 .22-.08.41-.23.57-.15.16-.36.24-.63.24-.29 0-.5-.08-.64-.24a.85.85 0 0 1-.22-.58Zm5.32 4.05v6.65h-1.44v-8.45h1.36l.08 1.8Zm-.34 2.1-.6-.02c0-.58.09-1.11.26-1.6.16-.5.4-.93.7-1.3a3.13 3.13 0 0 1 2.47-1.14c.42 0 .8.06 1.13.17.33.11.62.29.85.53.24.25.42.57.55.96.12.38.19.85.19 1.41v5.54h-1.46v-5.55c0-.45-.06-.8-.2-1.07a1.2 1.2 0 0 0-.56-.58 2.05 2.05 0 0 0-.92-.2 2.14 2.14 0 0 0-1.75.86 3.16 3.16 0 0 0-.66 2Z" fill="#24292F"/></g><rect x=".5" y=".5" width="212" height="39" rx="5.5" stroke="#D0D7DE"/><defs><clipPath id="a"><rect width="213" height="40" rx="6" fill="#fff"/></clipPath></defs></svg>