<svg width="232" height="40" fill="none" xmlns="http://www.w3.org/2000/svg"><g clip-path="url(#a)"><rect width="232" height="40" rx="6" fill="#fff"/><path d="M40.5 0v-.5H11.96c-2.8 0-4.94 0-6.61.22-1.69.23-2.96.7-3.95 1.68-.98 1-1.45 2.26-1.68 3.95C-.5 7.02-.5 9.17-.5 11.96v16.08c0 2.8 0 4.94.22 6.61.23 1.69.7 2.96 1.68 3.95 1 .98 2.26 1.45 3.95 1.68 1.67.22 3.82.22 6.61.22H40.5V0Z" fill="#1D9BF0"/><path d="M33 14.01a11 11 0 0 1-2.83.68 4.47 4.47 0 0 0 2.17-2.38c-.95.5-2 .85-3.13 1.05a5.28 5.28 0 0 0-3.6-1.36c-2.71 0-4.92 1.92-4.92 4.3 0 .33.05.66.13.97a14.75 14.75 0 0 1-10.15-4.48 3.86 3.86 0 0 0-.67 2.15c0 1.5.87 2.8 2.2 3.58a5.47 5.47 0 0 1-2.24-.54v.05c0 2.08 1.7 3.82 3.95 4.21a5.61 5.61 0 0 1-2.22.07c.63 1.7 2.45 2.95 4.6 2.98A10.84 10.84 0 0 1 9 27.07 15.46 15.46 0 0 0 16.55 29c9.05 0 14-6.54 14-12.21v-.56A9.4 9.4 0 0 0 33 14.01Z" fill="#fff"/><path d="M40.5 0v-.5H11.96c-2.8 0-4.94 0-6.61.22-1.69.23-2.96.7-3.95 1.68-.98 1-1.45 2.26-1.68 3.95C-.5 7.02-.5 9.17-.5 11.96v16.08c0 2.8 0 4.94.22 6.61.23 1.69.7 2.96 1.68 3.95 1 .98 2.26 1.45 3.95 1.68 1.67.22 3.82.22 6.61.22H40.5V0Z" stroke="#D0D7DE"/><path d="M65.26 22.08c-.03.54-.1 1.08-.25 1.63a5.33 5.33 0 0 1-.63 1.48 3.07 3.07 0 0 1-2.72 1.5c-.4 0-.76-.08-1.06-.22-.3-.14-.55-.35-.74-.62-.19-.27-.32-.6-.4-.98-.06-.38-.08-.8-.03-1.27l.45-4.87h1.3l-.46 4.87c-.03.43-.02.78.03 1.05.06.27.15.47.26.62.12.14.25.24.4.29.15.05.3.08.44.08.35 0 .66-.1.94-.27.27-.2.5-.45.7-.77.19-.33.34-.7.44-1.13.1-.44.17-.9.2-1.4.04-.86 0-1.67-.13-2.4a6.63 6.63 0 0 0-.6-1.95 4.51 4.51 0 0 0-2.75-2.34 7.04 7.04 0 0 0-4.22.04c-.62.22-1.18.54-1.68.96-.49.43-.91.93-1.27 1.52-.35.6-.63 1.26-.83 2-.2.75-.32 1.54-.36 2.4-.04.88.01 1.69.14 2.42.14.74.36 1.39.66 1.96a4.94 4.94 0 0 0 2.75 2.39 6.86 6.86 0 0 0 3.6.13c.54-.12.99-.3 1.34-.5l.34 1c-.41.26-.92.46-1.54.59a8.38 8.38 0 0 1-4.17-.18 5.95 5.95 0 0 1-3.36-2.76 7.76 7.76 0 0 1-.83-2.27c-.17-.84-.24-1.77-.2-2.78.04-.96.18-1.87.43-2.72a9.3 9.3 0 0 1 1.03-2.3c.43-.7.95-1.3 1.55-1.8a6.65 6.65 0 0 1 4.49-1.56c.9 0 1.72.13 2.45.37a5.86 5.86 0 0 1 3.3 2.76c.37.67.63 1.43.8 2.27.16.84.23 1.76.19 2.76Zm-9.03.75a4.9 4.9 0 0 0 0 1.1c.04.32.12.59.24.81.12.22.27.4.46.51a1.33 1.33 0 0 0 1.2.05c.2-.1.38-.23.56-.4.18-.19.35-.43.51-.72.16-.3.3-.64.4-1.05l.58.63c-.14.48-.31.9-.53 1.26-.21.37-.45.67-.71.92-.27.24-.55.43-.85.56-.29.12-.59.18-.9.18-.42 0-.8-.09-1.12-.27a2.16 2.16 0 0 1-.78-.79c-.2-.34-.34-.74-.42-1.21a7.92 7.92 0 0 1 .9-4.68c.24-.42.52-.77.82-1.05.31-.29.64-.5.99-.65a3.3 3.3 0 0 1 2.56.05c.36.18.7.4 1.03.65l-.75.87c-.17-.16-.39-.32-.66-.46-.28-.14-.6-.2-.98-.2-.32 0-.62.07-.9.24-.29.16-.54.4-.77.74-.22.33-.41.73-.56 1.22a8.02 8.02 0 0 0-.32 1.69Zm14.99 2.51c.38 0 .74-.08 1.07-.24.33-.16.6-.37.8-.65.22-.28.34-.6.37-.96H75a2.9 2.9 0 0 1-.57 1.58 3.9 3.9 0 0 1-3.21 1.6c-.72 0-1.34-.12-1.88-.37-.52-.25-.96-.6-1.31-1.04-.35-.44-.61-.94-.79-1.51a6.38 6.38 0 0 1-.25-1.82v-.37c0-.64.08-1.24.25-1.81.18-.57.44-1.08.79-1.52.35-.44.79-.79 1.31-1.04a4.34 4.34 0 0 1 1.88-.38 4 4 0 0 1 1.95.46A3.56 3.56 0 0 1 75 20.26h-1.55c-.03-.4-.14-.75-.34-1.06a2.16 2.16 0 0 0-1.9-1.05c-.5 0-.92.1-1.26.3-.33.2-.6.46-.8.79-.2.33-.33.7-.42 1.1-.08.4-.12.8-.12 1.22v.37c0 .42.04.83.12 1.23.08.4.22.77.41 1.1.2.33.47.6.8.79.34.2.76.29 1.27.29Zm9.56 1.34c-.66 0-1.26-.12-1.8-.34a4.08 4.08 0 0 1-2.26-2.42c-.2-.56-.3-1.17-.3-1.84v-.37c0-.77.1-1.46.33-2.07.23-.6.54-1.12.94-1.54a4 4 0 0 1 4.64-.93c.5.23.9.56 1.22.98.31.42.55.9.7 1.48.15.56.23 1.17.23 1.84v.73h-7.1v-1.32h5.47v-.13a4.05 4.05 0 0 0-.26-1.23c-.15-.4-.38-.73-.7-.98a2.05 2.05 0 0 0-1.32-.39 2.21 2.21 0 0 0-1.82.92c-.22.3-.4.68-.52 1.12-.12.44-.18.95-.18 1.52v.37c0 .45.06.88.18 1.27.13.4.31.74.55 1.04a2.71 2.71 0 0 0 2.08.96c.58 0 1.07-.12 1.47-.35.4-.24.74-.55 1.04-.94l.99.78c-.2.3-.47.6-.79.89-.31.28-.7.5-1.16.68-.46.18-1 .27-1.63.27Zm7.22-8.2v8.02h-1.62v-9.51h1.58l.04 1.5Zm2.97-1.54v1.5a4.12 4.12 0 0 0-.8-.07c-.37 0-.7.07-.99.18-.29.12-.53.29-.73.5-.2.2-.36.46-.47.75-.11.29-.19.6-.22.95l-.46.27c0-.58.06-1.12.17-1.62.11-.5.3-.95.53-1.34a2.57 2.57 0 0 1 2.97-1.13Zm7.5.05h1.47v9.3c0 .85-.17 1.56-.51 2.15-.34.6-.81 1.04-1.42 1.35a4.5 4.5 0 0 1-3.26.3c-.44-.1-.87-.27-1.3-.51a3.25 3.25 0 0 1-1.06-.98l.85-.97c.4.48.82.82 1.25 1 .44.2.87.29 1.3.29.52 0 .96-.1 1.34-.3.37-.19.66-.47.87-.85.2-.38.31-.84.31-1.4v-7.29l.15-2.09Zm-6.55 4.86v-.18c0-.73.08-1.39.25-1.98.18-.6.42-1.11.75-1.54a3.35 3.35 0 0 1 2.75-1.34c.6 0 1.12.11 1.56.32a3 3 0 0 1 1.14.9c.32.4.57.87.75 1.43.18.56.31 1.19.38 1.89v.8c-.06.7-.19 1.33-.38 1.89a4.44 4.44 0 0 1-.75 1.42c-.3.4-.69.7-1.14.9a3.8 3.8 0 0 1-3.13-.04 3.52 3.52 0 0 1-1.17-1.02 4.79 4.79 0 0 1-.76-1.52 6.95 6.95 0 0 1-.25-1.93Zm1.62-.18v.18c0 .48.05.92.14 1.34.1.41.25.78.45 1.1.2.31.47.56.78.74.32.18.7.27 1.14.27.53 0 .98-.12 1.33-.35.35-.23.63-.53.84-.9.2-.38.37-.78.49-1.22V20.7a4.32 4.32 0 0 0-.3-.93c-.13-.3-.3-.58-.51-.81a2.2 2.2 0 0 0-.76-.57c-.3-.14-.67-.21-1.08-.21-.44 0-.83.09-1.15.28-.31.18-.58.43-.78.75-.2.32-.35.69-.45 1.11-.1.42-.14.86-.14 1.34Zm10.49-2.79v7.62h-1.64v-9.51h1.55l.09 1.89Zm-.34 2.5-.75-.02c0-.65.09-1.25.25-1.8.17-.56.4-1.04.73-1.45.32-.41.72-.73 1.2-.95a3.85 3.85 0 0 1 1.67-.35c.45 0 .86.07 1.23.2a2.48 2.48 0 0 1 1.62 1.62c.16.43.23.94.23 1.53v6.34h-1.63v-6.26c0-.5-.08-.9-.25-1.2-.16-.3-.4-.5-.7-.64-.3-.14-.67-.21-1.08-.21-.48 0-.88.08-1.2.25-.32.17-.58.4-.77.7-.2.3-.34.65-.42 1.03-.09.38-.13.79-.13 1.21Zm6.16-.9-1.09.34c.01-.52.1-1.02.26-1.5.17-.48.41-.9.73-1.28s.72-.67 1.19-.9c.46-.21 1-.33 1.6-.33.51 0 .96.07 1.36.2a2.6 2.6 0 0 1 1.63 1.69c.13.44.2.95.2 1.55v6.25h-1.63v-6.27c0-.53-.09-.94-.26-1.24-.16-.3-.4-.5-.7-.62a2.82 2.82 0 0 0-2.02 0c-.28.12-.5.3-.7.51-.18.21-.33.45-.43.73-.09.27-.14.57-.14.88ZM119.96 17v9.51h-1.63v-9.51h1.63Zm-1.76-2.52c0-.27.08-.49.24-.67.16-.18.4-.27.72-.27.31 0 .55.09.71.27.17.18.26.4.26.67 0 .25-.09.47-.26.65-.16.17-.4.26-.7.26-.33 0-.57-.09-.73-.26a.96.96 0 0 1-.24-.65Zm6 4.55v7.48h-1.63v-9.51h1.54l.09 2.03Zm-.39 2.36-.68-.02c.01-.65.1-1.25.3-1.8.18-.56.44-1.04.78-1.45a3.52 3.52 0 0 1 2.8-1.3c.46 0 .88.07 1.26.2.37.12.7.32.95.6.27.27.48.63.62 1.07.14.43.21.96.21 1.59v6.23h-1.63v-6.25c0-.5-.08-.9-.22-1.2-.15-.3-.36-.52-.64-.65a2.3 2.3 0 0 0-1.04-.21 2.4 2.4 0 0 0-1.96.95 3.53 3.53 0 0 0-.75 2.24Z" fill="#24292F"/></g><rect x=".5" y=".5" width="231" height="39" rx="5.5" stroke="#D0D7DE"/><defs><clipPath id="a"><rect width="232" height="40" rx="6" fill="#fff"/></clipPath></defs></svg>